<svg id="Layer_1" data-name="Layer 1" xmlns="http://www.w3.org/2000/svg" viewBox="0 0 183.56 49.45"><path d="M43,48.19c-10,0-18.87-6.41-24.59-11.78A74.43,74.43,0,0,1,8.24,24.67l-.2-.3.21-.3A72.13,72.13,0,0,1,18.36,12.69C24.09,7.47,33,1.26,43,1.26S61.8,7.47,67.53,12.69A72.13,72.13,0,0,1,77.64,24.07l.21.3-.2.3A74.66,74.66,0,0,1,67.54,36.41C61.81,41.78,52.89,48.19,43,48.19ZM9.34,24.38C11.22,27.09,25.69,47.12,43,47.12s31.72-20,33.6-22.74c-1.9-2.65-16.36-22-33.6-22S11.24,21.73,9.34,24.38Z"/><path d="M140.61,48.19c-9.94,0-18.86-6.41-24.58-11.78a74.43,74.43,0,0,1-10.12-11.74l-.2-.3.21-.3A72.13,72.13,0,0,1,116,12.69c5.73-5.22,14.64-11.43,24.58-11.43s18.86,6.21,24.59,11.43a72.13,72.13,0,0,1,10.11,11.38l.21.3-.2.3A74.43,74.43,0,0,1,165.2,36.41C159.48,41.78,150.56,48.19,140.61,48.19ZM107,24.38c1.88,2.71,16.35,22.74,33.6,22.74s31.73-20,33.61-22.74c-1.9-2.65-16.36-22-33.61-22S108.91,21.73,107,24.38Z"/></svg>