<?xml version="1.0" encoding="utf-8"?>
<!-- Generator: Adobe Illustrator 26.1.0, SVG Export Plug-In . SVG Version: 6.00 Build 0)  -->
<svg version="1.1" id="Layer_1" xmlns="http://www.w3.org/2000/svg" xmlns:xlink="http://www.w3.org/1999/xlink" x="0px" y="0px"
	 viewBox="0 0 183.6 49.5" style="enable-background:new 0 0 183.6 49.5;" xml:space="preserve">
<style type="text/css">
	.st0{fill:#FFFFFF;}
</style>
<path class="st0" d="M43,47.1c17.3,0,31.7-20,33.6-22.7c-1.9-2.7-16.4-22-33.6-22s-31.8,19.3-33.7,22C11.2,27.1,25.7,47.1,43,47.1z"
	/>
<path d="M18.4,36.4C24.1,41.8,33,48.2,43,48.2c9.9,0,18.8-6.4,24.5-11.8c3.8-3.6,7.2-7.5,10.1-11.7l0.2-0.3l-0.2-0.3
	c-3-4.1-6.3-8-10.1-11.4C61.8,7.5,53,1.3,43,1.3S24.1,7.5,18.4,12.7c-3.8,3.4-7.2,7.2-10.1,11.4L8,24.4l0.2,0.3
	C11.2,28.9,14.6,32.9,18.4,36.4z M43,2.4c17.2,0,31.7,19.3,33.6,22C74.7,27.1,60.3,47.1,43,47.1s-31.8-20-33.7-22.7
	C11.2,21.7,25.8,2.4,43,2.4z"/>
<path class="st0" d="M140.6,2.4c-17.2,0-31.7,19.3-33.6,22c1.9,2.7,16.3,22.7,33.6,22.7c17.2,0,31.7-20,33.6-22.7
	C172.3,21.7,157.9,2.4,140.6,2.4z"/>
<path d="M165.2,12.7c-5.7-5.2-14.6-11.4-24.6-11.4S121.7,7.5,116,12.7c-3.8,3.4-7.1,7.2-10.1,11.4l-0.2,0.3l0.2,0.3
	c3,4.3,6.3,8.2,10.1,11.7c5.7,5.4,14.6,11.8,24.6,11.8c10,0,18.9-6.4,24.6-11.8c3.8-3.6,7.1-7.5,10.1-11.7l0.2-0.3l-0.2-0.3
	C172.3,19.9,168.9,16.1,165.2,12.7z M140.6,47.1c-17.3,0-31.7-20-33.6-22.7c1.9-2.7,16.4-22,33.6-22s31.7,19.3,33.6,22
	C172.3,27.1,157.9,47.1,140.6,47.1z"/>
</svg>
