<?xml version="1.0" encoding="utf-8"?>
<!-- Generator: Adobe Illustrator 26.1.0, SVG Export Plug-In . SVG Version: 6.00 Build 0)  -->
<svg version="1.1" id="레이어_1" xmlns="http://www.w3.org/2000/svg" xmlns:xlink="http://www.w3.org/1999/xlink" x="0px"
	 y="0px" viewBox="0 0 300 300" style="enable-background:new 0 0 300 300;" xml:space="preserve">
<style type="text/css">
	.st0{clip-path:url(#SVGID_00000019674178907640483270000011742187180072108417_);}
</style>
<g>
	<defs>
		<rect id="SVGID_1_" x="0" width="300" height="300"/>
	</defs>
	<clipPath id="SVGID_00000156565275121615574680000008841946016695611301_">
		<use xlink:href="#SVGID_1_"  style="overflow:visible;"/>
	</clipPath>
	<path style="clip-path:url(#SVGID_00000156565275121615574680000008841946016695611301_);" d="M312,318.4c0,17,0,34,0,51
		c-10.6,0-21.3,0-31.9,0c-0.1-0.5-0.1-1-0.3-1.4c-1.2-2.9-2.1-5.9-3.6-8.7c-1.2-2.2-2.8-4.1-4.5-6c-0.4-0.5-1.4-0.4-2.1-0.6
		c0,0.7-0.2,1.5,0.1,2c1.2,2.1,2.6,4.1,3.9,6.1c1.7,2.6,2.6,5.5,2,8.7c-0.6,0-1.2,0-1.8,0c-0.4-0.7-0.9-1.3-1.3-2
		c-1.9-3.2-4.3-6-7.6-7.9c-3.3-1.9-5.5-4.9-7.1-8.5c-1-2.4-2.5-4.6-3.8-6.8c-0.3-0.5-0.8-0.7-1.3-1.1c-2,1.7-0.2,3,0.3,4.7
		c-1.1-0.7-2-1.2-2.8-1.9c-0.8-0.7-1.6-1.5-2.4-2.3c-1.8-1.9-2.3-5.4-0.1-7.5c1.7-1.7,3.7-1.7,5.8-1c1.8,0.6,3.4,1.4,5.5,2.3
		c-1.7-2.1-3.2-3.8-5.5-4.6c-1.5-0.5-2.4-1.7-3-3.1c-0.5-1.3-0.2-2.5,0.7-3.5c0.9-1,2-0.7,3.2-0.4c0.5,0.2,0.9,0.4,1.5,0.6
		c-0.9-1.8-2-2.8-3.6-3.6c-1.1-0.5-2.2-1.2-3-2c-1.2-1.1-1.3-3.4-0.4-4.7c1.2-1.7,2.4-2,4.4-1.2c1,0.4,1.9,1,2.9,1.5
		c-1.4-2.2-1.6-2.1-3.6-3.2c-1.1-0.6-2.2-1.6-3-2.5c-0.9-1.1-0.8-2.4-0.1-3.6c0.8-1.3,2.1-1.6,3.5-1.1c1,0.4,2,0.9,2.9,1.4
		c1.4,0.7,3.5,0.7,4.8-0.1c-3.1-1.6-5.6-3.9-7.9-6.4c-1.6-1.8-3.7-3.1-6.2-2.8c-3.4,0.4-6.2-0.9-8.7-3c-0.7-0.6-1.5-1.1-2.3-1.4
		c-0.4-0.1-1.2,0.1-1.6,0.4c-0.3,0.3-0.4,1.1-0.2,1.4c0.4,0.8,1,1.4,1.6,2.1c0.3,0.3,0.7,0.6,1.1,0.8c0,0.2,0,0.3-0.1,0.5
		c-0.7,0.1-1.4,0.4-2,0.3c-2.5-0.1-4.5-1.3-6.4-2.9c-1.3-1.1-2.5-2.3-3.9-3.2c-0.5-0.3-1.8-0.3-2.2,0.1c-0.4,0.4-0.6,1.7-0.3,2.2
		c0.6,0.9,1.6,1.5,2.5,2.2c1.1,0.8,2.5,1.4,3.2,2.5c1.2,1.7,2.3,3.5,4,4.7c0.2,0.1,0.3,0.4,0.7,1c-1.3-0.1-2.3,0.1-3.2-0.3
		c-1.3-0.5-2.5-1.5-3.8-2.1c-0.5-0.3-1.2-0.3-1.7-0.5c-0.1,0.5-0.4,1.1-0.4,1.6c0.2,2.1,1.8,3.2,3.5,3.9c2.5,1,4.3,2.7,5.2,5.2
		c0.7,2,1.9,3.6,3.7,4.9c0.3,0.2,0.4,0.5,0.7,1c-2.7,0.4-4.7-0.3-6.7-1.7c-0.7-0.5-2.2-0.9-2.4-0.6c-0.8,0.9-0.2,2,0.5,2.9
		c0.3,0.3,0.6,0.7,0.9,1c2.6,2,4.8,4.4,6.5,7.3c1.1,1.9,1.4,4,1.6,6.2c-0.7-0.4-1.1-0.9-1.6-1.4c-1.6-1.8-3.1-3.8-5-5.4
		c-1.8-1.5-4.1-2.5-6.2-3.8c-3.6-2.3-6.3-5.4-7.2-9.7c-0.3-1.6-0.6-3.3-0.7-5c-0.3-4.8-2.3-8.5-6.6-10.8c-3.5-1.9-5.4-5-6.5-8.7
		c-1.1-3.5-2-7.1-3.4-10.5c-1-2.6-2.9-4.6-5.7-5.5c-0.6-0.2-1.5,0.1-2,0.5c-0.3,0.3-0.3,1.2-0.3,1.8c0,0.4,0.4,0.8,0.7,1.1
		c1,1,2,2,3.1,3c2.2,2.2,2.8,5,3.6,7.9c1,3.4,2.2,6.6,4.8,9.2c1,1,1.8,2.1,2.6,3.2c1.2,1.7,1.8,3.5,2.2,5.6c0.5,2.4,1.6,4.6,2.6,7.3
		c-1.6-1.8-3.4-3.2-4.2-5c-1.6-3.5-4-6.1-7.3-7.8c-3.4-1.7-6.4-4-8.2-7.5c-1-2.1-2-4.3-2.9-6.5c-1.3-2.9-2.6-5.7-5.1-7.7
		c-1.7-1.4-3.5-2.7-5.1-4.3c-4.8-4.7-7.2-10.7-8.6-17.1c-0.6-2.5-0.7-5.1-1.3-7.6c-0.4-1.5-1.3-3-2.1-4.4c-0.2-0.4-1.1-0.8-1.5-0.6
		c-0.4,0.1-0.8,0.9-0.8,1.3c0,1.1,0.3,2.2,0.6,3.3c0.6,2.3,1.5,4.5,2.1,6.8c0.2,0.9,0,1.9,0,3c-0.4-0.2-0.5-0.3-0.6-0.3
		c-1.3-3.6-3.8-6.4-6.1-9.4c-2.7-3.5-4-7.3-2.9-11.8c0.6-2.3,0.8-4.8-0.5-7c-1.1-1.9-2.6-3.6-4.2-5.1c-2.1-2-3-4.5-3.6-7.3
		c-0.8-3.8,0.4-7.3,1.3-10.9c0.5-2.2,0.7-4.5,0.8-6.7c0.1-1.2-1.3-2.6-2.2-2.4c-1.4,0.3-1.4,1.5-1.4,2.6c0,0.3,0,0.7,0.1,1
		c0.1,1.5,0.3,3.1,0.3,4.6c0,1.3-0.1,2.6-1.4,3.8c-0.2-0.6-0.3-1.1-0.4-1.6c-0.5-2.1-0.8-4.3-1.7-6.2c-2.4-5.4-2.6-10.8-0.6-16.4
		c0.9-2.5,1.9-5,1.1-7.8c-1.4-4.5-1.1-8.8,1.2-13c0.6-1,1-2.4,0-4.1c-0.7,1.1-1.3,1.9-1.8,2.8c-1.2,2.2-1.9,4.7-3.4,6.7
		c-3,4-4.3,8.3-3,13.2c0.9,3.4,0.4,6.7-1.2,9.9c-1.3,2.5-1.5,5.1-0.4,7.7c0.9,2.2,1.7,4.5,2.7,6.8c1.5,3.7,2.3,7.3,0.9,11.2
		c-1.2,3.2-1.5,6.5-0.3,9.8c0.7,1.9,1.6,3.8,2.5,5.8c-0.3-0.1-0.5,0-0.7-0.1c-3.6-1.7-5.8-4.5-6.8-8.3c-0.5-2-0.4-4.2-0.7-6.3
		c-0.1-0.7-0.7-1.4-1.1-2c-0.7,0.5-1.8,0.9-2.1,1.6c-0.5,1.3-0.7,2.8-0.5,4.2c0.5,6.1,3.9,10.5,8.7,14c2.9,2.2,5.4,4.7,6.2,8.4
		c0.5,2.1,0.9,4.2,1.4,6.2c0.6,2.4,1.1,4.9,3.4,6.3c1.3,0.8,2.6,1.7,3.9,2.5c3.3,2.1,5.8,4.8,6.8,8.7c0.7,2.6,1.5,5.2,2,7.9
		c0.9,4.4,3,8,6.8,10.6c1.4,1,2.7,2.1,3.2,4.1c-1.1-0.5-2.1-1.1-3.1-1.4c-4-1.4-7.1-3.6-8.6-7.7c-0.4-1.2-0.9-2.3-1.4-3.4
		c-0.9-1.8-1.5-3.9-3.3-5.2c-1.4-1.1-3.1-0.6-3.3,1.2c-0.2,1.2-0.1,2.5,0.3,3.7c1.6,5.5,5.1,9.6,9.7,12.8c3.2,2.3,6.7,4.2,10,6.3
		c2.8,1.9,4.8,4.5,5.5,7.8c1.5,7,5.2,12.6,11.1,16.8c3.9,2.7,7,6.2,8.8,10.8c0.5,1.3,1.3,2.5,2,3.8c0.1,0.3,0.3,0.5,0.5,1
		c-1.8,0-2.9-0.6-3.8-1.9c-0.8-1.2-1.7-2.4-2.5-3.7c-0.8-1.1-1.9-0.8-2.7-0.2c-0.4,0.4-0.7,1.4-0.4,2c1,3,3.1,5,6.1,6.1
		c1.6,0.6,3.3,1,4.9,1.7c5.6,2.4,9.4,6.5,10.7,12.6c1.2,5.6,3.2,10.7,8.4,13.8c-2.1,0-4.2,0-6.3,0c-1-0.8-1.9-1.7-2.9-2.5
		c-0.7-0.6-1.6-1.2-2.5-0.5c-0.9,0.7-1.4,1.7-0.9,3c-3.1,0-6.2,0-9.2,0c-0.5-1.2-1.1-2.3-1.3-3.6c-1-4.3,0.7-7,4.9-7.7
		c-0.9-1.6-1.7-3.1-2.6-4.5c-0.8-1.3-1.9-1.7-3.4-1.6c-0.9,0.1-1.8-0.2-2.7-0.5c-2.3-0.9-3.8-2.8-5.1-4.8c-0.4-0.7-1.6-1.5-2.1-1.4
		c-0.7,0.2-1.6,1.3-1.7,2.1c-0.2,1.5-0.1,3,0.2,4.5c0.3,1.6,1.1,3.1,1.6,4.6c0.4,1.4,0.7,2.9,0.9,4.2c0.5-0.4,1-0.7,1.4-1.1
		c2-1.8,3.8-1.3,4.5,1.2c0.3,1,0.3,2.2,0.8,3.1c0.8,1.8,1.8,3.6,2.8,5.4c-6.3,0-12.5,0-18.8,0c0.1-0.9,0.3-1.9,0.3-2.8
		c0-3.1,0.2-4.7-3.1-6.5c-2.3-1.2-4.2-2.7-5.3-5.1c-0.3-0.7-0.9-1.3-1.4-1.9c-0.9-0.9-2.1-0.6-2.3,0.7c-0.1,1,0,2.1,0.2,3.2
		c0.2,1.2,0.9,2.3,0.9,3.4c0,3.1,0.1,6.1,1.2,9c-3,0-6,0-8.9,0c0-1.9-0.1-3.8,0-5.7c0.1-2.6,0.5-5.2,0.5-7.8c0-1.3-0.6-2.7-1.2-3.9
		c-0.5-1.1-1.5-1.1-2,0c-0.5,1-0.6,2.3-0.6,3.4c0,2.6,0.4,5.3,0.3,7.9c-0.1,2-0.6,4-0.9,6c-0.6,0-1.2,0-1.8,0
		c-0.1-1.8-0.3-3.7-0.2-5.5c0.3-4.3-1.2-8.1-3.6-11.4c-2.9-4.2-4.5-8.8-5.3-13.7c-1-5.7-0.7-11.4,0.1-17.2c0.5-4.3,0.4-8.5-1.6-12.5
		c-0.5-1.1-1.3-1.9-2.4-1.5c-0.6,0.2-1.2,1.4-1.3,2.2c-0.4,2.8,0.4,5.4,1.2,8c0.7,2.4,1.1,4.9,0.7,7.5c-0.5,3.8-1,7.5,0.1,11.4
		c0.4,1.4,0.1,3,0.1,4.5c-1.2-1.9-2-3.8-2.9-5.7c-1.9-4-2.9-8.2-3-12.6c-0.1-3.1-0.5-6.1-1.8-9c-2.8-5.8-2.4-11.9-1.9-18.1
		c0.1-1.5,0.2-3.1,0.6-4.5c1.3-5.2,1.9-10.6,1.6-15.9c-0.2-2.9-1.1-5.9-2.1-8.7c-0.3-0.9-1.8-1.5-2.8-2.2c-0.5,1-1.1,1.9-1.6,2.9
		c0,0.1,0,0.2,0,0.3c-0.6,2.8,0.4,5.3,1.3,7.8c1.8,5.1,2.3,10.1,0,15.2c-0.7,1.5-1,3.1-1.3,4.7c-0.3,1.6-0.3,3.2-0.5,5
		c-0.2-0.4-0.4-0.5-0.4-0.7c-1.1-2.9-1.8-5.9-1.4-9c0.6-5.2-0.4-10.1-2.6-14.8c-1.5-3.1-2.1-6.4-2.3-9.9c-0.1-3.4,0.9-6.5,1.6-9.8
		c0.9-3.9,1.1-7.8-0.6-11.5c-2.4-5.1-3.8-10.3-3.4-16c0.2-4.2,0.9-8.2,2.8-12c1.7-3.3,3.4-6.7,4.9-10.1c1-2.3,0.9-4.8,0.3-7.2
		c-0.1-0.6-0.8-1.1-1.4-1.5c-0.2-0.1-0.9,0.7-1.2,1.2c-0.3,0.5-0.5,1.2-0.6,1.8c-0.2,1.8-0.4,3.6-0.6,5.4c-0.6,4.2-3.4,7.3-5.9,10.5
		c0-0.6,0.1-1.1,0.2-1.6c1-2.7,1.9-5.5,1.8-8.5c-0.1-3.1-0.2-6.3,0-9.4c0.2-3,1.3-5.7,3.8-7.8c3.3-2.9,6-6.2,6.3-10.9
		c0.4-5.7,2.8-10.4,7-14.3c1.4-1.3,2.4-3.1,3.5-4.8c0.2-0.3-0.1-0.8-0.1-1.2c-0.5,0.1-1,0.1-1.3,0.3c-0.4,0.2-0.7,0.7-1.1,1
		c-1.8,1.3-3.5,2.9-5.6,3.9c-2.4,1.1-3.8,2.8-4.5,5.2c-0.5,1.6-1,3.1-1.6,4.6c-1.5,3.1-4.1,5.2-6.6,7.3c-2.1,1.7-4.1,3.6-5.3,6.1
		c-1.6,3.3-1.1,6.8-0.6,10.2c0.8,5,0,9.4-3.3,13.4c-1.8,2.1-3.7,4.2-4.4,7c-0.4,1.6-0.7,3.3-1,5.2c-0.4-0.3-0.9-0.5-1-0.9
		c-0.3-1.2-0.8-2.5-0.6-3.6c0.4-2.6,1.2-5.2,1.9-7.8c0.3-1,0.7-2,0.8-3c0.1-0.5-0.4-1-0.6-1.5c-0.5,0.2-1.1,0.3-1.3,0.7
		c-0.7,1-1.4,2-2,3.1c-1.7,3.3-2.5,6.7-2,10.4c0.3,2.4,0.4,4.8,0.4,7.3c0,4.4-1.9,7.9-5.3,10.8c-4.1,3.6-4.7,8.4-1.7,12
		c1,1.3,2.3,2.3,3.6,3.4c5.2,4.4,6.1,9.3,3.6,15.2c-0.9,2.1-1.8,4.3-2.4,6.6c-1.1,4.3-0.4,8.3,2.7,11.8c0.2,0.2,0.3,0.6,0.4,0.9
		c-0.2,0.1-0.3,0.3-0.5,0.4c-1.2-0.9-2.6-1.6-3.5-2.8c-1.7-2.1-2.7-4.6-3.2-7.2c-0.5-2.6-0.8-5.3-1.3-7.9c-0.2-1.1-0.7-2-1.9-2.3
		c-1.1-0.2-1.8,0.4-2.3,1.3c-0.3,0.4-0.6,0.8-0.8,1.3c-2.4,5.3-1.1,12.2,3.6,16.2c2.6,2.2,5.4,4.4,6.2,7.9c0.6,2.7,0.7,5.6,0.8,8.4
		c0.2,4.5,0.9,8.7,4.2,12.3c3.1,3.4,4.8,7.6,4,12.4c-0.4,2.2,0,4.2,1,6.2c0.2,0.4,0.3,0.9,0.4,1.4c-0.7-0.1-1.2-0.5-1.6-0.8
		c-2-1.7-2.7-4.2-3.7-6.5c-0.2-0.5-0.8-0.9-1.2-1.4c-0.5,0.5-1.1,0.9-1.3,1.5c-0.7,2-0.6,3.9,0.5,5.8c1.2,2.1,3.1,3.4,5,4.8
		c2.1,1.6,4.1,3.3,5.7,5.3c2.3,2.8,1.7,6.2,1.4,9.4c-0.4,3.4-0.2,6.7,1.4,9.8c0.7,1.3,1.3,2.6,2.2,4.3c-4-1.5-6.5-3.8-7.8-7.5
		c-0.7-2-1.2-4.1-2-6c-0.2-0.6-1.1-0.9-1.7-1.3c-0.3,0.7-0.8,1.4-0.8,2c-0.1,3,1.3,5.6,2.5,8.3c0.9,1.9,1.7,3.8,2.6,5.8
		c-4.7,0-9.3,0-14,0c0.7-1.5,1.2-3,2-4.4c1.5-2.4,2.2-4.8,1.7-7.6c-0.4-2.4-0.5-4.7,0.4-7c0.4-0.9,0.6-1.8,0.8-2.7
		c0.2-1.2,0.2-2.3-1.3-2.7c-0.6-0.2-1.2-0.6-1.6-1.1c-0.9-1-1.6-2.1-2.4-3.1c-0.3-0.4-0.8-0.9-1.2-0.8c-0.4,0-0.9,0.6-1.1,1
		c-0.3,1-0.7,2-0.6,3c0.4,3.4-0.5,6.4-2.4,9.2c-0.8,1.2-1.2,2.6-0.9,4.2c1.6-1.1,3-1.3,4.2-0.5c1.7,1.1,1.9,1.9,1.5,4.2
		c-0.6,2.7-1,5.4-0.1,8.2c-6.4,0-12.7,0-19.1,0c0-2.2-0.3-4.4,0.1-6.5c0.6-3.2,2.2-3.8,5.1-2.5c0.1,0.1,0.3,0,0.5,0
		c0.2-1,0.4-2,0.4-2.9c0.1-2.3,0.5-4.5-0.6-6.7c-0.3-0.7-0.7-1-1.5-0.7c-1.4,0.6-2.7,0.1-3.6-1c-0.7-0.9-1.1-2-1.7-2.9
		c-0.3-0.5-0.8-1-1.2-1.5c-0.5,0.5-1.1,0.8-1.4,1.4c-0.3,0.6-0.3,1.4-0.4,2.1c-0.3,1.8-0.7,3.7-1,5.5c-0.2,1.2-0.6,2.3-0.9,3.7
		c0.6-0.1,0.8-0.2,1-0.2c2.3-0.5,3.6,0.8,3.2,3.1c-0.1,0.5-0.2,1-0.3,1.5c-0.2,2.6-0.5,5.2,0.7,7.7c-4.3,0-8.6,0-12.8,0
		c0.2-0.7,0.4-1.4,0.7-2.1c0.7-1.8,1.8-3.6,1.4-5.7c-0.1-0.5-0.4-1.2-0.8-1.4c-0.4-0.2-1.2,0-1.6,0.3c-0.7,0.6-1.2,1.3-1.7,2
		c-1.5,2-1.5,4.5-1.8,6.8c-0.9,0-1.8,0-2.7,0c-0.2-0.8-0.3-1.6-0.5-2.3c-1.2-5,0.1-9.4,3.7-13.1c3.1-3.2,4-7.8,2.4-11.9
		c-1.8-4.5-2.4-9.1,0.1-13.6c0.9-1.6,1.8-3.2,2.6-4.8c1.1-2.1,2.4-4.2,2.6-6.7c0.1-1.3,0-2.5-1.4-3.1c-1.4-0.6-2.3,0.4-2.8,1.3
		c-0.8,1.6-1.4,3.4-1.9,5.1c-0.5,1.7-0.7,3.6-1.4,5.3c-1.9,4.4-3.9,8.8-3.8,13.7c0,0.3-0.3,0.6-0.4,0.9c-0.1,0-0.3,0-0.4-0.1
		c-0.3-1.8-0.4-3.7-0.8-5.5c-0.7-3-0.6-6,0.3-8.9c0.9-3,2.1-5.9,1.9-9.1c-0.3-4.7,1.3-8.8,4.6-12.1c2.2-2.2,3.4-4.9,3.8-8
		c0.3-2.3,0.4-4.8,1.2-7c1.2-3.3,2.8-6.4,4.6-9.4c2.5-4.3,5.7-8.3,6.5-13.4c0.3-2.2,0.2-4.4,0.1-6.6c-0.1-0.7-1-1.6-1.7-1.8
		c-0.5-0.1-1.6,0.8-1.8,1.4c-0.7,2.4-1.4,4.8-1.8,7.3c-0.5,3.2-1,6.3-2.9,9.1c-1.8,2.7-3.5,5.5-5.2,8.3c-0.7,1.2-1.1,2.6-1.7,4.1
		c-0.8-3-0.1-7.7,1-10c2.4-4.9,3.6-10,3.2-15.5c-0.3-5.7,1-11,5-15.4c1-1.1,1.9-2.3,3-3.3c3.3-3,3.6-7,4-11
		c0.3-3.4,0.2-6.9,1.4-10.3c1.6-4.4,4.7-7.6,8.4-10.4c2-1.5,3.4-3.4,3.8-5.8c0.1-0.7-0.4-1.6-0.7-2.4c-0.7,0.2-1.6,0.2-2,0.7
		c-1.1,1.2-2.3,2.5-3,4c-1.4,3.2-3.1,6.1-5.5,8.5c-0.3,0.3-0.9,0.5-1.3,0.7c0.1-0.4,0-1,0.3-1.3c1.9-2.7,2.7-5.8,3.5-8.9
		c1.5-5.6,3.9-10.7,8.7-14.3c2.9-2.2,6.1-4,9.3-5.9c2.6-1.6,5-3.3,6.2-6.1c0.4-1,0.6-2.1-0.4-2.6c-0.5-0.3-1.6,0-2.2,0.3
		c-2.5,1.6-4.5,3.7-6.1,6.5c-0.3-0.5-0.6-1-0.5-1.5c0.3-3.4,1.8-6.3,4.1-8.8c2.9-3.2,6.8-4.5,10.8-5.6c2.1-0.6,4.4-1.1,6.2-2.3
		c2.3-1.5,4.5-3.4,6.4-5.5c2.1-2.2,4.4-3.8,7.4-4.6c2.2-0.6,4.3-1.6,5.4-4c-0.4-0.4-0.9-0.8-1.3-1.1c-3.7-2.3-9.2-1.1-11.7,2.4
		c-1.3,1.8-2.4,3.8-3.7,5.6c-1.6,2.2-3.8,3.6-6.4,4.2c-2.3,0.6-4.6,1.1-6.9,1.6c-0.2,0.1-0.5-0.1-0.8-0.1c0-0.2,0-0.5,0.1-0.6
		c1-0.9,2-1.8,3.1-2.6c1.1-0.7,2.3-1.1,3.4-1.7c0.4-0.3,0.8-1.3,0.6-1.6c-0.4-0.5-1.2-1.1-1.7-1c-1.3,0.3-2.8,0.7-3.8,1.5
		c-3,2.2-5.5,4.9-7.3,8.1c-1.5,2.6-3.5,4.2-6.2,5.3c-3.4,1.4-5.7,3.9-6.6,7.5c-1.4,6-4.4,11-9.7,14.4c-1.2,0.8-2.2,2-3.1,3.1
		c-2.4,2.8-2.8,6.3-2.8,9.8c0,5.5-1.7,10.3-5.3,14.5c-2.2,2.6-3.9,5.5-3.9,9.1c0,0.3-0.2,0.6-0.3,1.1c-0.3-0.3-0.5-0.6-0.6-0.8
		c-1.6-2.8-1.4-5.9-0.5-8.8c0.8-2.6,2.1-5.1,3-7.7c0.9-2.5,1.6-5.2,0.4-7.8c-0.9-2.1-2.7-2.8-4.4-1.6c-3.1,2.2-5.3,5.2-6.2,9
		c-0.6,2.5-0.1,5,0.7,7.5c0.8,2.3,1.9,4.6,2.5,7c1.2,4.8,0.1,9.1-3,12.9c-3.2,3.9-5.6,8.1-5.3,13.5c0.3,6.1-3.1,10.6-7.8,14.7
		c0.5-1.9,1.1-3.4,1.4-5.1c0.1-0.5-0.1-1.3-0.4-1.7c-0.3-0.4-1.2-0.6-1.5-0.5c-0.8,0.4-1.6,1-2,1.8c-0.6,1-0.8,2.2-1.3,3.3
		c-1.3,3.1-3.9,5-6.3,7.1c0.1-0.6,0.1-1.3,0.5-1.7c1.7-2.1,2.3-4.5,2.3-7.2c0-2.4,0.8-4.5,2.6-6.2c1.3-1.3,2.4-2.8,3.3-4.4
		c0.7-1.2,0-2.1-1.4-1.8c-0.7,0.1-1.4,0.5-2.2,0.9c-0.1-0.3-0.2-0.5-0.2-0.8c0-2.3,1.4-3.9,2.7-5.6c0.8-1,1.5-2.1,1.8-3.3
		c0.3-1-0.1-2-1.2-2.6c-1.1-0.5-1.8,0-2.4,0.8c-0.4,0.5-0.7,1.1-1.1,1.6c-0.2,0.2-0.5,0.4-1,0.7c-0.2-2.3,0-4.2,1.1-6
		c1-1.7,2.2-3.4,2-5.6c-0.1-1.6-1.2-2-2.4-2.4c-1.2-0.4-2,0.2-2.4,1.2c-0.6,1.3-1.2,2.7-1.4,4c-0.4,3.2-0.5,6.5-0.6,9.8
		c-0.1,2.8-2,6-4.5,7c0.1-0.8,0.4-1.6,0.2-2.4c-0.2-0.7-0.8-1.7-1.3-1.8c-0.7-0.1-1.9,0.3-2.2,0.9c-0.5,0.8-0.7,2-0.5,3
		c0.7,2.9-0.5,5.2-2,7.5c-0.8,1.2-1.8,2.6-1.8,4c-0.1,3.2-1.8,5.6-3.4,8.1c-0.6,0.9-1.2,1.7-1.8,2.5c0.1,0.1,0.3,0.2,0.4,0.3
		c1.2-1.1,2.3-2.2,3.5-3.3c1-0.9,1.9-1.9,3-2.6c1-0.6,2.2-0.7,3.1,0.4c0.9,1.1,0.3,2.1-0.3,3.1c-0.6,0.9-1.3,1.8-1.8,2.7
		c-0.8,1.6-1.4,3.2-0.8,4.9c1-1,1.8-2.2,3-3c0.7-0.5,1.8-0.7,2.6-0.6c1.5,0.3,2,1.8,0.7,3.8c-1.7,2.8-0.7,6-1.8,8.8
		c0.3-0.1,0.5-0.2,0.6-0.3c0.8-1.4,1.6-2.9,2.4-4.3c0.8-1.5,2.2-2.2,3.9-2.4c1.4-0.1,2.6,0.6,3,1.9c0.4,1.4,0.9,3,0.6,4.4
		c-0.4,1.9-1.3,3.7-2.2,5.5c-1.7,3.1-1.9,6.1-0.5,9.4c0.9,2.2,1.5,4.6,1.7,7c0.3,4.2-1.2,8-3.4,11.6c-2.1,3.4-3.8,7-2.8,11.2
		c0.1,0.2-0.1,0.5-0.2,0.9c-1.7-1.1-2.5-2.7-2.6-4.4c-0.2-2.9,0.7-5.6,1.8-8.4c0.7-1.8,1-3.8,1.3-5.7c0.1-0.7-0.5-1.9-1-2
		c-0.8-0.2-1.8,0.2-2.6,0.6c-0.5,0.3-1,0.9-1.2,1.5c-0.7,2.4-1.5,4.9-1.9,7.4c-0.6,3.9,0.5,7.8,1.5,11.5c0.9,3.4,1.4,6.8,0.9,10.3
		c-0.4,2.6-1.3,4.9-3.1,6.8c-2.4,2.5-4.9,4.8-7.3,7.4c-0.7,0.7-1,1.7-1.5,2.5c-0.2,0-0.3,0-0.5,0c-0.1-0.7-0.5-1.5-0.3-2.2
		c0.7-2.5,1.6-5,2.5-7.4c0.4-1.1,0.9-2.2,0.3-3.4c-0.4-0.9-1.1-1.3-1.9-0.6c-1,0.8-1.9,1.6-2.7,2.5c-2.2,2.9-2.2,6.4-1.8,9.8
		c0.3,2.6,0.7,5.2,1,7.8c-6.1,0-12.1,0-18.2,0c0-26.6,0-53.3,0-79.9c0.7-1.5,1.4-3,2.2-4.5c2.5-4.3,6.3-7.3,10-10.5
		c2.9-2.5,5.9-4.9,7.8-8.3c0.9-1.6,1.4-3.5,1.8-5.4c0.1-0.6-0.5-1.5-1.1-1.9c-0.3-0.2-1.4,0.2-1.8,0.6c-1.5,1.8-3.2,3.5-4.2,5.5
		c-2.1,4.5-6.4,6.8-9.6,10.3c0.2-1.2,0.5-2.5,1.1-3.5c2.3-3.8,4.1-7.8,5.1-12.1c0.7-2.9,1.9-5.7,4.2-7.7c2.3-2,4.6-3.9,7.1-5.6
		c3.1-2.1,4.7-5.1,5.4-8.5c1.4-7.1,5.5-11.9,12.1-14.6c1.6-0.6,3.1-1.3,4.5-2.2c1.6-0.9,3.2-2,3.8-4c0.4-1.3,0-1.9-1.3-2
		c-1.7-0.2-3.1,0.5-4.1,1.6c-3.4,3.7-8.1,5.6-12,8.9c0.3-1.9,1.6-2.8,2.5-4c1.6-1.9,3.6-3.7,4.7-5.9c2.6-5,6.6-8.6,11.6-10.9
		c4-1.8,6.5-4.7,8-8.7c1.5-3.8,3-7.6,6.3-10.3c3.6-3,7.9-4.7,12.3-6c2.7-0.8,5.4-1.5,7.8-3.2c1.8-1.3,3.9-2.4,4.5-4.7
		c0.3-0.9-0.1-2.1-0.2-3.1c-0.9,0.1-1.9,0-2.6,0.4c-1.6,1-3,2.2-4.5,3.4c-1.7,1.3-3.3,2.8-5.1,3.8c-2,1-4.3,1.4-6.4,2.3
		c-1.9,0.8-3.7,1.9-5.6,2.8c0.4-1.2,0.8-2.4,1.7-3.2c1.8-1.7,3.7-3.3,5.7-4.7c2.8-1.8,5.2-4.1,7-6.9c3.1-4.6,7.3-7.5,13.1-7.4
		c2.4,0.1,4.7,0.6,7.1,0.7c1.8,0.1,3.5-0.1,5.3-0.4c1-0.2,1.7-0.9,1.8-2.1c0.1-1.2-0.7-1.7-1.6-2.2c-2.4-1.3-4.5-0.2-6.7,0.6
		c-1.2,0.4-2.5,0.5-3.8,0.8c1.5-1.7,2.8-3.1,4.1-4.5c0.6-0.6,1.4-1.2,2.1-1.6c3.7-2,7.6-1.7,11.5-1.1c2.3,0.4,4.5,1.1,6.8,1.3
		c4.1,0.4,7.4-1.4,10.4-3.9c1.3-1.1,2.6-2.2,4.2-2.9c3.7-1.6,7-0.6,10.2,1.6c0.8,0.5,1.6,1,2.5,1.6c0.1-1.5-0.2-1.9-1.4-2.9
		c-1.9-1.6-3.8-3.3-5.7-5c-1.8-1.6-3.6-2.8-6.4-2.3c-3.5,0.7-7.1,0.7-10.6-0.5c-1.5-0.5-3.1-0.7-4.7-0.8c-3.5-0.2-5.9,1.5-7.6,4.4
		c-1.3,2.3-3.3,3.5-5.9,3.7c-1.2,0.1-2.4,0-3.5-0.1c-2.9-0.2-5.6-0.2-8.1,1.6c-1.2,0.9-2.6,1.6-4,2.3c-1,0.5-2.1,0.7-3.2,1
		c0.1-0.6,0.3-0.8,0.6-1.1c2.2-2.2,4.2-4.5,6.5-6.7c1.1-1,2.4-1.9,3.8-2.5c1.3-0.6,2.8-0.7,4.1-1.2c0.6-0.2,1-0.8,1.4-1.3
		c-0.6-0.5-1-1.2-1.7-1.4c-3.3-1.1-7.1,0.2-9.1,3c-1.2,1.7-2.2,3.5-3.5,5.2c-2.4,3.1-5.2,5.5-9.5,5.6c-2.9,0-5.7,0.6-7.9,2.8
		c0,0-0.2,0-0.3,0c-0.4-2.4,1.2-5,3.8-6.1c1.4-0.6,2.9-1.1,4.2-1.8c1.2-0.6,1.5-1.7,0.4-2.5c-0.7-0.5-2-1-2.8-0.7
		c-1.2,0.3-2.2,1.3-3.3,1.9c-1.3,0.7-2.5,1.7-3.8,2c-2.3,0.5-4.5,0.8-5.6,3.3c-0.8-1.1-0.5-2-0.1-2.8c1.1-2.3,2.9-3.8,5.3-4.7
		c1-0.3,1.8-1.3,2.5-2.1c0.8-1.1,1.4-2.5,2.1-3.7c0.6-1,0.3-2.3-0.8-2.5c-0.9-0.1-2,0.1-2.7,0.6c-0.9,0.6-1.4,1.7-2.1,2.6
		c-1.4,1.8-3,2.3-5,1.7c0.4-0.5,0.8-1.1,1.2-1.6c0.7-0.8,0.9-1.9,0.1-2.6c-0.7-0.6-1.9-1.2-2.7-1.1c-1,0.2-2,1.1-2.7,1.9
		c-1.6,1.9-3.4,2.8-5.9,2.1c-0.5-0.2-1.1-0.2-1.6-0.4c-2.8-0.6-5.3-0.2-7.1,2.4c-1.4,2-2.8,4.1-5.2,5.1c1.7,0.4,3.2,0.2,4.8-0.3
		c0.9-0.3,2.4-0.2,3.2,0.4c1,0.7,0.9,2.1,0.2,3.1c-0.6,0.8-1.5,1.4-2.3,2c-0.8,0.6-1.8,0.9-1.8,2.7c2.5-0.9,4.7-1.8,6.9-2.7
		c1.2-0.5,2.3-0.3,3.2,0.4c0.9,0.7,1,1.7,0.7,2.8c-0.4,1.5-1.4,2.3-2.6,3.1c-0.7,0.4-1.4,0.9-2.1,1.4c1.1,0.2,2,0,2.9,0.1
		c0.7,0.1,1.8,0.7,1.9,1.2c0.1,0.8-0.4,1.7-0.9,2.4c-0.4,0.6-1.1,1-1.6,1.5c0.1,0.1,0.1,0.2,0.2,0.4c0.4,0,0.8,0.1,1.2,0.1
		c1.7,0.1,3,1.1,3.5,2.7c0.9,2.9-0.9,5.5-4.5,6.3c-0.5-1-0.8-2.4-1.5-2.8c-1.2-0.7-2.4,0.4-3.4,1.3c-0.5,0.4-0.9,1.1-1.1,1.7
		c-0.4,1.7-0.7,3.5-0.9,5.2c-0.4,4-1.8,7.1-6,8.3c-0.7,0.2-1.2,0.8-1.8,1.3c-0.4,0.4-0.8,0.8-1.3,1.3c-0.6-1.9-0.4-3.3,0.9-4.4
		c0.4-0.4,0.7-0.8,1-1.3c0.7-1.1,0.3-3.1-0.7-3.8c-1-0.7-2.5-0.3-3.4,1.1c-0.2,0.2-0.3,0.5-0.4,0.8c-0.2,1.2-0.6,2.3-0.6,3.5
		c0.1,2.9,0.2,5.7,0.5,8.6c0.5,4.7-2.2,7.4-6.8,6.7c-3.1-0.5-5.9,0.2-7.8,2.8c-1.2,1.7-2.3,3.5-3.2,5.3c-1.3,2.6-3.1,4.8-6,5.6
		c-2.5,0.8-5.1,1.4-7.7,2.1c0-20.6,0-41.2,0-61.7c4.4-3.8,9.3-6.3,15-7.2c1.3-0.2,2.6-0.5,3.7-1.1c0.6-0.3,1.2-1.4,1.2-2.1
		c0-0.9-1-1.3-1.9-1.2c-0.8,0.1-1.6,0.1-2.3,0.4c-2.2,0.9-4.3,1.9-6.5,2.7c-1.3,0.5-2.8,1.2-4.5,0.6c0.3-0.2,0.4-0.4,0.6-0.5
		c2.1-1.4,4.3-2.8,6.4-4.2c1.6-1.1,3.2-2.2,5-3.1c3-1.6,6.4-1.6,9.7-1.8c3.2-0.2,5.4-1.7,7.5-4c3.4-3.8,7.6-5.5,12.8-4.5
		c2,0.4,4.1,0.2,6.2,0c0.6-0.1,1.6-1.1,1.6-1.8c0.1-0.7-0.6-1.8-1.3-2.1c-2.1-0.8-4.4-1-6.4,0c-3.3,1.5-6.7,0.7-10.1,1.1
		c0.7-0.5,1.5-0.8,2.3-1.1c3.3-1,6.3-2.5,9.2-4.2c2.2-1.4,4.9-2,7.6-1.4c2.9,0.7,5.8,1.5,8.7,2.4c2.6,0.8,5.1,1,7.7,0
		c1.1-0.5,2.3-0.8,3.5-1c3.9-0.7,7.4,0.7,10.8,2.3c4.4,2.1,8.6,4.5,13.5,5.2c1.3,0.2,2.7,0.1,3.9-0.3c1.8-0.6,2.1-2.7,0.5-3.7
		c-1.1-0.7-2.6-1.2-3.9-1.5c-1.6-0.3-3.3-0.3-4.9-0.1c-4.5,0.4-7.4-2.7-10.9-4.6c0.5-0.2,1.1-0.3,1.6-0.3c1.5,0.2,3,0.4,4.5,0.8
		c2.2,0.5,4.4,0.7,6.7,0.1c2.4-0.6,4.8-1,7.3-0.5c3.4,0.7,5.8,2.9,8.2,5.1c2.1,1.8,4.2,3.6,6.4,5.3c0.4,0.3,1.1,0.2,1.7,0.2
		c0.1-0.7,0.5-1.6,0.2-2c-0.6-0.7-1.5-1.2-2.3-1.6c-1.4-0.6-2.6-1.4-3.5-3c1.4,0.3,2.4,0.5,3.5,0.6c5,0.5,9,2.6,11.8,6.8
		c1.8,2.7,3.9,4.8,7.1,5.7c2.3,0.6,4.4,1.8,5.8,3.9c0.8,1.2,1.2,2.6,2,3.8c1,1.5,2.2,2.9,3.4,4.2c0.3,0.3,1.2,0.3,1.6,0
		c0.3-0.3,0.5-1.1,0.4-1.6c-0.2-0.7-0.7-1.5-1.2-2c-2.1-2-3.4-4.3-4.2-7c-1-3.1-3.2-4.9-6.3-5.8c-2.3-0.6-4.2-2-5.6-3.9
		c-1.5-1.9-2.9-3.8-4.3-5.7c2.6-1.1,4.4,1.3,6.7,2.2c0.5-1.5-0.2-2.6-1.2-3.2c-1.8-1-3.8-1.8-5.8-2.6c-3.3-1.2-6.3-2.9-8-6
		c-1.5-2.6-3.9-3.8-6.6-4.3c-2.3-0.5-4.7-0.4-7.1-0.6c-2.7-0.3-5.2-0.9-7.4-2.7c-2.5-1.9-4.8-4.2-8-4.9c-0.6-0.1-1.2-0.3-2-0.6
		c1.9-1.4,3.7-1.8,5.6-1c1.5,0.6,3.1,1.2,4.4,2.1c2.1,1.4,4.2,1.8,6.6,1.6c1.7-0.2,3.5,0,5.2,0.1c1,0.1,2.1,0.3,3.1,0.4
		c1.5,0,2.2-0.9,1.6-2.2c-0.5-1-1.4-2-2.4-2.5c-2.3-1.2-4.9-1.3-7.4-0.9c-3,0.5-6,0.4-8.6-1.1c-3.7-2.2-7.3-2.4-11.2-0.6
		c-4.1,1.9-8.2,2.1-12.3-0.4c-3.1-1.9-6.6-2.4-10.2-0.6c-3.3,1.7-6.8,2.7-10.6,1.9c-0.6-0.1-1.2-0.5-2.1-0.8
		c1.5-0.5,2.8-0.6,3.7-1.3c0.8-0.6,1.3-1.7,1.5-2.6c0.1-0.4-0.9-1.3-1.6-1.6c-2.3-1.2-5.2-0.4-6.7,1.8c-1,1.5-1.9,3-2.8,4.5
		c-2,3.2-6,4.6-9.9,3.8c-2.3-0.5-4.6-1.1-7-1.3c-2-0.2-4.1,0-5.9,1.4c-1,0.8-2.1,1.5-3.2,2.1c-1.4,0.8-3,0.8-4.7,0.4
		c0.3-0.2,0.4-0.3,0.5-0.4c2.5-0.6,4.4-2,6-4.1c1-1.2,2.6-2.3,4.1-2.6c2.3-0.6,4.8-0.5,7.2-0.6c1.3-0.1,2.6,0.1,3.8-0.1
		c1-0.1,1.7-0.8,1.6-2c-0.1-1.1-0.9-1.6-1.8-1.6c-1.4,0-2.8-0.1-4.1,0.3c-3.1,1.1-6.2,1.9-9.5,1.4c-2.1-0.3-4,0.3-5.6,1.5
		C6,90.8,5,91.9,4,93c-2.4,2.5-5.5,3.2-8.7,3.5c-2.1,0.2-3.9,0.9-5.4,2.3c0-17.2,0-34.4,0-51.6c2-1,4-1.9,6.4-1.9
		c3.5,0.1,6.6,1.7,9.8,2.9c3,1.1,5.8,2.5,8.8,3.5c1.4,0.5,2.9,0.7,4.4,0.6c0.7,0,1.4-0.8,2.2-1.2c-0.5-0.6-0.9-1.4-1.4-1.9
		c-0.3-0.3-0.9-0.4-1.4-0.5c-1.1-0.2-2.3-0.2-3.4-0.5c-2.1-0.5-4.2-0.9-6.3-1.7c-2.1-0.7-3.8-3.6-3.7-5.8c4.4,3.7,6.9,4.5,12.7,4
		c4.4-0.3,8.1,1.5,11.6,3.8c2,1.3,4.1,2.3,6.6,2.5c2,0.2,4,0.8,5.8,1.6c1.6,0.6,1.9,2,1,3.4c-0.4,0.6-1.5,0.8-2.2,1.2
		c-0.9,0.4-1.8,0.7-1.9,1.5c1.6,0.9,3,1.4,4.2,2.4c1.6,1.3,0.9,3.4-1.1,4c-0.3,0.1-0.6,0.2-0.9,0.3c0,0.2,0,0.3,0,0.5
		c1,0.2,2,0.5,3.1,0.7c1.6,0.3,3.3,0.4,4.4,1.9c0.9,1.1,0.5,2.4-0.8,2.9c-0.8,0.3-1.7,0.5-2.5,0.8c-1.3,0.6-2,1.6-2.1,3.2
		c2.8-0.5,4.9,0.6,6.8,2.3c0.5,0.5,1.2,0.8,1.9,1.2c1,0.5,2.2,0.7,3-0.3c0.7-0.9,0.2-1.9-0.4-2.7c-0.7-0.8-1.5-1.6-2.5-2.7
		c2.6,0.4,4.8,0.7,6.2,2.8c1.8,2.8,4.2,4.6,7.8,4.7c2,0,3.8,0.7,5.5,2.1c0.8,0.7,2,1.1,3.1,1.4c0.8,0.2,1.9,0,2.4-0.5
		c0.5-0.5,0.6-1.8,0.3-2.4c-0.4-0.6-1.4-1-2.3-1.2c-1.8-0.4-3.4-0.7-4.5-2.5c-0.9-1.4-2-2.8-3.3-3.7c-1.2-0.9-2.8-1.1-4.4-1.7
		c0.5-0.3,1-0.9,1.5-1c1.3-0.2,2.6-0.1,4-0.2c0.6,0,1.5,0,1.7-0.3c0.3-0.5,0.4-1.5,0.1-1.9c-0.5-0.7-1.3-1.5-2.1-1.7
		c-1-0.3-2.1-0.2-3.2-0.1c-3.3,0.6-6.8-0.8-8-3.6c0.9,0.1,1.7,0.3,2.4,0.2c0.9-0.3,2-0.6,2.6-1.3c0.7-0.9-0.2-1.6-0.9-2.2
		c-0.6-0.5-1.1-1-1.8-1.3c-1.4-0.6-2.9-1.1-4.6-1.7c0.7-0.5,1.3-1.3,1.9-1.3c1.8-0.2,3.9-0.5,5.5,0.1c2.6,0.9,5.1,2.3,7.5,3.8
		c2.6,1.7,5.3,3.1,8.6,2.6c4.6-0.7,8.4,0.9,11.4,4.4c1.6,1.9,2.8,4,4.3,6c1,1.2,2.1,2.4,3.2,3.4c0.4,0.4,1.4,0.5,1.9,0.3
		c0.4-0.2,0.8-1.1,0.6-1.6c-0.3-1.2-0.8-2.5-1.5-3.4c-0.8-1.1-2.1-1.8-3.1-2.7c-1.8-1.6-3.3-3.3-4.2-5.7c-0.9-2.7-2.2-5.3-4.8-6.9
		c-0.3-0.2-0.4-0.4-0.8-0.8c3.5,0.1,5.7,1.8,7.2,4.5c1.6,2.9,3.5,5.7,6.4,7.5c0.8,0.5,1.5,1.1,2.2,1.7c3.6,2.9,5.5,7,7.4,11
		c1.1,2.3,2.6,4.3,4.7,5.9c4.9,3.7,8.2,8.3,9.2,14.5c0.4,2.6,0.9,5.3,2.5,7.5c0.4,0.6,1.5,1.4,1.8,1.2c1-0.4,0.7-1.5,0.4-2.4
		c-0.1-0.2-0.1-0.4-0.2-0.5c-1.2-2.6-2-5.2-1.8-8c0.1-2.4-0.7-4.3-2.2-6.1c-0.2-0.2-0.4-0.5-0.6-0.7c0.1-0.1,0.2-0.2,0.3-0.4
		c0.7,0.4,1.6,0.7,2.1,1.3c2.2,2,3.3,4.7,4.1,7.5c0.6,2.3,1.7,4.2,3.2,5.9c3,3.5,4.9,7.6,4.7,12.3c-0.1,2.9,0.9,5.4,2.7,7.7
		c0.3,0.3,0.5,0.7,0.7,1.1c1.8,2.5,2.2,5.6,3,8.5c0.3,1,0.5,2.5,1.9,2.2c1.1-0.3,0.8-1.7,0.5-2.6c-0.6-2-1.3-3.9-1.9-5.9
		c-1.1-3.5-2.1-6.9-1.7-10.6c0.5-4.3,0.1-8.3-3.4-11.4c-2.3-2.1-3.3-4.9-3.5-8c-0.3-4.6-2.4-8.2-6.5-10.3c-3.9-2-6.4-4.9-7.6-9
		c-0.2-0.8-0.4-1.7-0.9-2.3c-1.6-2.4-3.1-4.9-5.5-6.5c-0.5-0.4-1.1-0.8-1.6-1.1c1.8,0.1,3.6,0.2,5,1c1.8,1.1,3.3,2.7,4.8,4.1
		c1.1,1.1,2,2.3,3.1,3.4c0.3,0.3,1.1,0.3,1.4,0.1c0.3-0.2,0.5-1,0.4-1.3c-0.5-1.2-1-2.4-1.7-3.4c-2.2-2.7-5.1-4.5-8.2-6
		c-3.2-1.5-6.4-3.2-8.1-6.5c-2.2-4.4-5.8-6.9-10.3-8.5c-3.9-1.4-6.9-4-9.2-7.6c-1.5-2.4-3.4-4.7-7-4.9c0.7-0.5,1.1-0.9,1.5-1.1
		c1.6-0.8,3-0.1,4.4,0.5c1.5,0.7,2.8,1.6,4.3,2.4c0.8,0.4,1.6,0.6,2.3-0.3c0.6-0.8,0.4-1.6-0.2-2.3c-2.3-2.7-5.3-4.2-8.8-4.4
		c-4-0.2-7.9-0.1-11.9-0.2c-2.5-0.1-4.7-1-6.6-2.7c-2-1.7-3.9-3.4-5.9-5c-2.2-1.8-4.6-2.3-7.3-0.8c-0.5,0.3-1.1,0.3-1.7,0.5
		c-0.2-0.2-0.3-0.4-0.5-0.6c0.7-0.5,1.4-0.9,2-1.4c2.5-2.5,5.6-3.3,8.9-2.3c2.3,0.7,4.5,2,6.7,3c0.8,0.4,1.7,0.9,2.6,1
		c0.9,0.1,2-0.1,2.7-0.7c0.9-0.7,0.9-1.9,0.4-3c-1.3-3.2-5.2-5.5-9.2-5.5c-4.3-0.1-8.2,1.3-12.1,2.7c-3.4,1.1-6.7,1.1-9.7-0.7
		c-1.9-1.1-3.5-2.5-3.8-4.8c2,0.5,4,1.1,6,1.4c1.6,0.3,3.3,0.2,4.1-1.5c0.8-1.7-0.4-2.8-1.4-3.9c-0.9-1-1.3-2.1-0.9-3.6
		C49.4,7,50.2,7.6,51,7.8c0.8,0.3,1.9,0.5,2.4,0.2c1-0.6,1.7-1.7,1.2-2.9c-0.8-1.7-1.8-3.3-2.7-5.1c0.2,0,0.7-0.1,1.1,0
		c2.6,0.6,4.6,2.2,6.1,4.5c0.7,1.2,1.6,2.3,2.5,3.3c0.6,0.7,1.2,0.6,1.7-0.4c0.9-1.6,0.5-3.1-0.4-4.5c-0.5-0.7-1-1.3-1.5-1.9
		C62,1,62.5,1.1,63,1.3c3.1,1.4,5.3,3.9,7.3,6.5c0.9,1.2,2.2,2.2,3.5,2.8c1.4,0.7,2.6,0.1,3.2-1.5c0.4-1.1,0.6-2.2,0.8-3.3
		c0.6-3-2.5-7-5.5-7c-3.2,0-5.9-1-8.1-3.4c-1.2-1.2-2.7-1.8-4.3-1.4c-3.1,0.9-5-0.5-6.6-2.9c-0.8-1.3-1.7-2.6-2.7-3.7
		c-1.1-1.4-3.3-2.1-4.4-1.7c0.7,1.3,1.4,2.5,2.1,3.9c0.7,1.4,0.4,2.7-0.7,3.8c-1,1-2.1,0.4-3.2,0c-0.6-0.2-1.1-0.6-1.6-0.9
		c-0.1,0.1-0.3,0.2-0.4,0.3c0.7,1,1.3,2,2,2.9c0.7,0.9,1.7,1.6,2.2,2.5c0.6,1,0.7,2.2-0.3,3.1c-1,0.9-2,0.6-3-0.2
		c-0.3-0.3-0.7-0.6-1.1-0.7c-0.9-0.2-1.8-0.2-2.7-0.3c-0.1,0.2-0.1,0.4-0.2,0.5c0.4,0.5,0.8,1,1.1,1.5c0.4,0.7,0.9,1.4,1.2,2.2
		c0.5,1.4,0,2.7-1.2,3.4c-1,0.6-2.3,0.3-3.2-0.7c-0.9-0.9-1.7-1.9-2.6-2.8c-1.3-1.3-2.5-2.8-4.7-2.7c0.8,1.2,1.7,2.1,2.3,3.2
		c0.8,1.3,0.4,3.2-0.7,4.3c-1.1,1.1-2.4,1.1-3.7,0.6c-0.7-0.3-1.4-0.6-2-1c-2.7-1.9-5.7-3-9-2.9c-1.3,0-2.7,0.1-4-0.3
		c-1.8-0.5-3.7-1.1-5.3-2.2c-3-2-5.3-5.2-9.3-6c1-0.5,2-0.9,2.9-0.9c3.2,0.1,6.1,1.4,9,2.7c1.1,0.5,2.2,0.9,3.4,1
		c0.6,0.1,1.6-0.4,1.9-1c0.3-0.5,0.1-1.5-0.2-2.2C15.5-3.6,15-4,14.6-4.3c-2.2-1.7-4.7-2-7.4-1.9c-4,0.1-7.8-0.4-11.5-2.2
		c-1.7-0.8-3.8-0.7-5.8-1c0-7.9,0-15.9,0-23.9c9.5,0,19.1,0,28.6,0c1.5,3.3,2.8,6.7,4.5,10c1.1,2.2,3,3.7,5.5,4.5
		c2.6,0.8,5.2,1.9,7.8,2.8c0.3,0.1,0.7,0.2,1,0.2c1.5,0.2,2.3-0.6,1.8-2c-0.5-1.2-1.1-2.4-2-3.2c-2.2-1.9-4-4-5.1-6.8
		c-0.8-2-2.1-3.8-3.1-5.7c3,0,6,0,8.9,0c0.6,1.5,1.1,3.1,1.8,4.5c1,2,2.2,3.9,3.4,5.7c0.3,0.5,1.2,0.6,1.8,0.9
		c0.2-0.7,0.8-1.4,0.7-2c-0.2-1.1-0.8-2.1-1.3-3.1c-1.1-2-2.3-4-3.4-6c1.3,0,2.6,0,3.9,0c1,1,1.9,2.3,3.2,3.1
		c2.7,1.6,4.7,3.8,6.1,6.7c1.4,2.7,3.1,5.2,6.1,6.4c2.7,1.1,5,2.8,7,4.9c0.7,0.8,1.6,1.5,2.5,2.1c0.5,0.3,1.1,0.3,1.7,0.4
		c0.1-0.6,0.4-1.4,0.3-1.9c-0.6-2.1-1.9-3.7-3.9-4.7c-2.7-1.4-4-3.9-5.1-6.5c-0.1-0.3,0-0.7,0-1c0.1-0.1,0.3-0.2,0.4-0.2
		c0.2,0.3,0.3,0.6,0.5,0.9c1.2,2.2,3.3,3.4,5.5,4.4c3.5,1.5,6.3,4,8.5,7c1,1.4,2,2.9,2.4,4.6c1.2,4.8,3.8,8.4,8,11.1
		c3.1,2,5.5,4.8,6.3,8.5c0.5,2.2,0.6,4.4,0.8,6.6c0.3,2.4,0.7,4.6,2.9,6.1c1.2,0.8,1.9,0.4,1.9-1c0-0.9-0.3-1.8-0.6-2.7
		c-0.8-2.2-1.6-4.4-2.4-6.7c-0.1-0.2,0.1-0.5,0.2-0.9c1.2,2,2.2,4.1,3.6,5.7c4.4,4.9,6,11,7.2,17.2c0.9,4.5,1.6,9,4.5,12.7
		c0.9,1.1,2.2,1.9,3.5,2.7c0.4,0.2,1.3,0,1.7-0.3c0.3-0.2,0.3-1.2,0.1-1.6c-1.2-2.1-2.2-4.2-3.7-6c-3.1-3.8-3.6-8-3-12.6
		c0.1-0.6,0.5-1.2,0.7-1.8c0.5,0.5,0.7,1,0.7,1.5c0.4,4.9,2.2,9.2,6.1,12.3c5,4,7.1,9.3,7.7,15.5c0.2,2,0.8,3.9,2.5,5.2
		c1.1,0.8,1.8,0.4,1.9-0.9c0-0.4,0-0.9-0.1-1.3c-0.5-1.3-1-2.5-1.5-3.9c1.4-0.4,2.4,0.4,3.1,1.4c1.2,1.7,2.3,3.5,3.3,5.3
		c1.9,3.7,2.1,7.7,1.8,11.7c-0.1,2.3,0.5,4.3,1.8,6.3c0.9,1.4,1.6,3,2.1,4.5c0.9,2.9,0.6,5.8,0.2,8.7c-0.3,1.9-0.5,3.8,0.6,5.5
		c0.4,0.6,1.1,1,1.6,1.4c0.5-0.7,1.4-1.3,1.5-2c0.1-1.5-0.2-3-0.4-4.5c-0.1-1.1-0.4-2.2-0.5-3.4c-0.1-2.4,0-4.7-0.1-7.1
		c0-0.2,0-0.5,0-0.7c0.1,0,0.3-0.1,0.4-0.1c0.6,1.4,1.4,2.8,1.7,4.3c0.7,3.5,0.6,7.2,2.5,10.4c0.5,0.9,1,1.9,1.4,2.9
		c1.4,3.9,1.1,7.8-0.2,11.7c-0.8,2.5-1.1,5,0.1,7.5c2.1,4.2,2.1,8.6,0.6,13c-0.3,1-0.5,2,0.5,3.1c0.5-0.9,1.1-1.6,1.4-2.3
		c1.5-3.6,0.9-7.2,0.5-10.9c-0.4-3-0.4-5.8,1.2-8.7c0.8-1.5,1.3-3.5,1.2-5.2c-0.2-2.3-1.2-4.6-1.8-6.8c-0.5-2-1.3-3.9-1.3-5.9
		c0-2.6,0.7-5.2,1.1-7.8c1,1,1.3,2.5,1.3,4.2c0,1.2,0.5,2.4,1,3.5c0.4,0.8,1.3,0.8,1.5-0.1c0.3-1.1,0.6-2.2,0.5-3.3
		c-0.5-3.2-2-6-3.9-8.5c-2.3-3.1-3.6-6.4-3.7-10.3c0-1.8-0.3-3.6-0.7-5.3c-0.5-2.1-1.8-3.7-3.5-5c-1-0.8-1.9-2-2.7-3.1
		c-0.2-0.3-0.1-0.9-0.1-1.1c1.4,0.9,2.7,1.8,4,2.7c1.5,1,3.2,1.8,4.5,3.1c1.2,1.1,1.8,2.7,2.9,3.9c0.5,0.6,1.3,0.8,2,1.2
		c0.1-0.7,0.5-1.5,0.4-2.2c-0.6-2.8-2-5.3-4.5-6.9c-1.6-1-3.2-1.9-4.8-3c-3.3-2.2-5.8-5-6.2-9.3c-0.3-3.5-0.6-7.2-4-9.6
		c1.5-0.6,2.8-0.4,3.7,0.6c1.4,1.6,2.4,3.4,3.7,5.1c0.4,0.5,1.1,0.8,1.7,1.2c0.2-0.7,0.6-1.4,0.4-1.9c-0.9-3.9-3.7-6.4-7.1-8.1
		c-5.3-2.6-8.9-6.5-10.5-12.2c-0.9-3.2-2.7-5.7-5.6-7.4c-2.3-1.3-4.5-2.6-6.8-4c-3.3-2.1-5.9-4.9-6.7-8.9c-0.5-2.5-1-5-2.6-7.2
		c-0.1-0.2-0.1-0.5-0.2-0.8c0.1-0.1,0.2-0.2,0.3-0.3c0.8,0.5,1.9,0.7,2.4,1.4c1.5,1.8,3,3.7,4,5.8c1.4,2.8,3,5.2,6,6.5
		c0.5,0.2,1.5,0.4,1.7,0.1c0.5-0.5,0.9-1.6,0.7-2c-0.6-1.2-1.3-2.6-2.4-3.2c-3.8-2.3-6.2-5.4-7.6-9.6c-1.2-3.6-3.8-5.8-7.5-6.8
		c-2.7-0.8-5.2-2-6.5-4.6c-1.9-3.9-4.8-6.7-8.8-8.4c-2.8-1.2-4.6-3.6-5.6-6.4c-0.4-1.1-0.7-2.2-1.1-3.2c0.3,0,0.6,0,0.9,0
		c0.6,0.9,1.2,1.8,1.9,2.6c1.9,2.2,4,3.8,7,4.3c2.6,0.4,5.1,1.3,6.9,3.4c0.8,0.9,1.6,1.9,2.5,2.7c0.5,0.4,1.1,0.7,1.7,1.1
		c0.1-0.1,0.3-0.2,0.4-0.3c-0.1-0.8-0.2-1.5-0.4-2.3c-0.7-2.2-2.4-3.6-4.2-4.9c-2.3-1.6-4.7-2.9-7-4.4c-0.9-0.6-1.7-1.5-2.6-2.3
		c4.9,0,9.7,0,14.6,0c1,3,2,6,3,9.1c0.3,0.9,0.7,1.8,1.1,2.7c0.5,1.1,1.4,1.4,2.5,1c1.5-0.7,2.9-0.3,4.3,0.3c1.3,0.6,2,0.1,1.6-1.2
		c-0.4-1.6-1.1-3.1-2.1-4.5c-0.9-1.3-1.6-2.6-1.7-4.2c-0.1-1.1-0.2-2.2-0.3-3.2c2.2,0,4.4,0,6.6,0c0.2,1.2,0.2,2.4,0.7,3.5
		c0.4,0.8,1.3,2,2,2c2.9,0.1,4.6,1.5,5.8,4c0.3,0.7,1.1,1.3,1.7,1.9c1.9-2.5,1.8-5.1,0.1-7.8c-0.7-1.1-1.1-2.4-1.6-3.6
		c2.3,0,4.6,0,6.9,0c0.1,0.4,0.2,0.9,0.3,1.3c0.1,2.1,0.2,4.1,0.3,6.2c0.1,1.3,0.3,2.7,0.7,3.9c0.2,0.6,0.9,1,1.5,1.4
		c0.4-0.5,1.1-0.9,1.2-1.5c0.2-0.9,0.2-1.9,0-2.8c-0.4-2.9-1.5-5.7-0.7-8.6c0.8,0,1.6,0,2.4,0c0.5,2.2,0.6,4.6,1.6,6.5
		c1.9,3.9,2.6,7.8,2.6,12.1c-0.1,3.8,0.8,7.3,2.9,10.4c2.9,4.6,3.4,9.6,2.9,14.8c-0.3,2.5-0.2,5.1-0.1,7.7c0.1,1,0.7,2.2,1.4,3
		c0.9,1.2,2.3,0.9,2.5-0.6c0.2-2,0.3-4.2-0.2-6.2c-1.1-4.5-0.5-8.8,0.9-13.2c0.4,0.8,0.7,1.7,0.7,2.5c0,2.5,0.4,4.9,1.3,7.2
		c0.8,2.1,1.9,4.1,2.5,6.3c1.1,4.2,0.7,8.4,0,12.7c-0.2,1.3-0.3,2.6-0.2,3.8c0,0.5,0.6,1.3,1,1.4c0.6,0.1,1.5-0.3,1.9-0.7
		c0.4-0.4,0.5-1.3,0.6-1.9c0.1-0.9,0-1.8,0-2.7c0.1,0,0.3,0,0.4,0c0.2,0.5,0.4,1,0.5,1.5c2.2,5.5,2.3,11.1,0.4,16.7
		c-1.2,3.4-1,6.7,0.7,9.8c2.5,4.4,2,8.7,0.3,13.1c-0.9,2.3-1.9,4.5-2.6,6.8c-1,3-1.1,6.1,0.3,9c0.3,0.5,1.2,1.1,1.8,1.1
		c0.4,0,1-1,1.1-1.6c0.2-1.4,0.1-2.9,0.1-4.3c-0.1-2.5-0.1-4.9,1.4-7c1.5-2.2,3.3-4.2,3.6-7.1c0.2,0.8,0.4,1.6,0.2,2.3
		c-0.5,2.3-1.5,4.5-1.5,6.8c0,2.6,0.8,5.1,1.1,7.7c0.5,4.1-0.1,7.9-3.2,11c-3.4,3.4-4.8,7.3-3.1,12c1.5,4.3,0.3,7.8-3,10.7
		c-2.6,2.3-3.4,5.2-2.8,8.3c0.6,2.7,0.3,5.2-0.7,7.7c-0.3,0.7-0.3,1.6-0.2,2.3c0.2,0.8,0.7,1.3,1.6,0.6c2-1.4,3-3.4,3-5.8
		c0-1.5,0-3.1,0.3-4.6c0.6-2.8,2.7-4.5,4.8-6.2c2.8-2.2,3.8-4.8,2.7-8.4c-0.6-2-0.9-4.1-0.8-6.2c0.1-2.6,1.5-4.7,3.3-6.5
		c2.2-2.3,3.7-4.9,4-8.1c0-0.2,0.2-0.4,0.4-0.8c0.3,0.5,0.4,0.7,0.5,1c0.8,2.5,0.4,4.9-0.5,7.4c-0.6,1.7-1.3,3.3-1.6,5.1
		c-0.1,0.7,0.4,2,1,2.3c1.1,0.5,1.7-0.7,2.3-1.5c0.1-0.1,0.2-0.3,0.2-0.4c1-3.8,1.8-7.6,0.9-11.6c-1.1-4.8-1.1-9.5,0.9-14.2
		c1.6-3.8,1.4-7.8-0.1-11.7c-1.7-4.3-2.8-8.7-1.3-13.4c0.4-1.4,0.6-2.8,0.7-4.2c0.1-3.1-0.6-5.9-2.6-8.5c0.8,0.2,1.5,0.4,2,0.8
		c3.6,3.3,5.3,7.5,5.6,12.3c0.2,2.1,0.4,4.1,0.7,6.2c0.1,0.5,0.6,0.9,1,1.3c0.5-0.4,1.1-0.7,1.4-1.1c1-2,0.8-4.1,0.1-6.2
		c-1-3-2.1-5.9-3.1-8.9c-1.3-4-1.7-8-0.8-12.2c0.5-2.4,1.1-4.8,1.4-7.3c0.5-3.7-0.7-7.1-2.4-10.3c-2.7-4.9-2-10.1-1.2-15.3
		c0.9,1.1,1.7,2.2,2.5,3.4c0.9,1.3,2.3,1.3,3-0.1c0.4-0.8,0.5-1.9,0.4-2.8c-0.2-2.1-1.8-3.3-3.2-4.6c-3.2-2.9-5.5-6.2-5.8-10.6
		c-0.3-4.6-1.5-8.8-4.3-12.5c-1.3-1.7-1.9-3.9-2.9-5.9c7.3,0,14.5,0,21.8,0c-2,2.9-3.7,5.8-3.3,9.6c0.1,0.6-0.1,1.3-0.4,1.7
		c-0.6,0.6-1.3,1.3-2.1,1.5c-1.1,0.3-2-0.3-2.5-1.4c-0.4-1-0.7-2-1.2-3.3c-0.9,3.1-1.4,6,0.6,8.4c2,2.4,3.7,4.9,4.7,7.8
		c0.3,0.8,1.3,1.7,1.9,1.8c0.8,0,1.8-0.8,2.3-1.5c1.7-2.3,1.1-4.8,0.4-7.3c-0.8-3-1.7-6.1-0.8-9.2c0.8-2.7,1.4-5.4,1.2-8.2
		c2.2,0,4.4,0,6.6,0c-0.5,2.3-1.5,4.6-1.4,6.9c0.2,4.2,1.7,8.1,4.4,11.5c0.4,0.5,1.3,1.1,1.8,1c0.5-0.1,0.9-1,1.1-1.6
		c0.6-1.6,0.6-3.4,1.6-4.7c2-2.8,1.1-5.4,0.2-8.6c-0.3,1.4-0.6,2.4-0.8,3.5c-0.3,1.6-1.3,2-2.7,1.9c-1.3-0.1-2.2-0.9-2.2-2.2
		c-0.1-2.6,0-5.1,0-7.7c5.2,0,10.3,0,15.5,0c-0.1,2,0.1,4.1-0.4,6c-0.6,2.4-1.5,4.8-2.5,7.1c-1.7,3.6-2.8,7.3-3.3,11.2
		c-0.2,1.2-0.3,2.5,1.1,3.1c1.9-0.9,2.4-2.6,2.7-4.4c0.5-3.8,1.3-7.4,3.3-10.8c1.1-1.8,2-3.9,2.4-6c0.4-2,0-4.1,0-6.2
		c0.9,0,1.8,0,2.7,0c0.2,1,0.5,1.9,0.7,2.9c0.5,2.6,1.3,5.2,1.3,7.9c0,2.2-0.7,4.4-1.5,6.4c-1.9,4.8-2.8,9.7-2.4,14.9
		c0.2,2.5,0,5.2-0.8,7.6c-1,3.2-2.5,6.2-4.1,9.2c-2,3.9-4.4,7.6-6.2,11.6c-0.7,1.6-0.5,3.7-0.6,5.5c0,0.3,0.5,0.9,0.8,1
		c0.2,0.1,0.9-0.3,1-0.6c0.5-0.9,1-1.8,1.2-2.8c0.9-3.6,1.6-7.2,4.2-10c1.6-1.8,3.1-3.7,3.7-6.2c0-0.2,0.4-0.3,0.6-0.5
		c0.2,0.1,0.3,0.1,0.5,0.2c-0.7,2-1,4.2-2,6c-2,3.5-2.6,7.4-3.3,11.3c-0.5,2.9-1.1,5.8-2.2,8.6c-1.7,4.6-4.9,8.2-8.4,11.6
		c-4.1,3.8-7.7,8-9.9,13.2c-1.1,2.6-1.6,5.2-0.8,7.9c0.2,0.5,0.5,1,0.8,1.5c0.2,0,0.3,0,0.5,0c0.5-1,1.3-2,1.6-3.1
		c0.6-1.8,0.9-3.7,1.3-5.6c0.7-3.4,2.3-6.3,5.3-8.2c0.6-0.4,1.3-0.7,2-1.1c0,0.3,0.1,0.4,0.1,0.5c-0.1,0.2-0.2,0.4-0.4,0.6
		c-3.1,4.1-4.2,8.7-3.8,13.8c0.3,3.4,0,6.8-1.1,10.1c-1.4,4.1-4.1,7.3-6.9,10.5c-1.5,1.8-3,3.5-3.3,5.9c-0.1,0.8,0.2,1.9,0.8,2.4
		c0.8,0.7,1.9,0.4,2.7-0.3c1.9-1.7,3.3-3.6,4.1-6.1c0.7-2.2,1.9-4.2,2.9-6.3c0.2,0.1,0.3,0.1,0.5,0.2c-0.2,1-0.5,2-0.7,3
		c-0.3,2.3-0.3,4.6-0.7,6.8c-0.8,4.2-2.6,7.9-6.6,10.1c-1.3,0.7-2.6,1.3-3.8,2c-3.4,2-6,4.6-6.3,8.8c-0.1,0.9-0.2,1.8-0.5,2.6
		c-1.4,4.2-4.8,5.8-8.8,6.2c-1.6,0.2-3,0.6-4,1.7c-1.3,1.6-2.5,3.3-3.3,5.2c-1,2.4-1.9,4.7-4.2,6.3c-1.1,0.8-2.4,1.9-2,4.2
		c1.1-0.6,2.1-1,2.8-1.7c0.9-0.9,1.5-2.1,2.3-3.1c1-1.2,1.9-2.7,3.2-3.5c1.5-1,3.4-1.6,5.1-2.2c4.5-1.3,8-3.8,9.8-8.3
		c1.3-3.1,3.5-5.3,6.3-7c2-1.2,3.5-3.1,5.3-4.7c0.3-0.3,0.6-0.6,1-0.9c0.1,0.1,0.2,0.1,0.4,0.2c-0.1,0.4,0,0.9-0.2,1.2
		c-1.2,1.9-2.4,3.7-3.6,5.5c-0.6,0.9-1.5,1.6-2.1,2.4c-0.6,0.9-1,1.9-0.2,2.9c0.8,1,1.9,0.6,2.9,0.2c0.4-0.1,0.7-0.4,1-0.7
		c2.4-2.1,3.2-5,3.7-7.9c1-5,2.7-9.5,6.7-13c3.4-2.9,5.4-6.7,5.9-11.3c0.3-2.8,1.3-5.5,3.2-7.7c1.6-1.8,3.3-3.4,4.9-5.2
		c2.3-2.7,4.8-5.4,5.7-9.1c0.1-0.6,0.6-1.1,0.8-1.6c0.4,0.8,0.6,1.5,0.5,2.1c-0.8,3.3-1.5,6.5-3.9,9.2c-1.1,1.3-1.9,2.9-2.6,4.4
		c-0.8,1.7,0.6,3.4,2.5,3.1c3.4-0.5,6.1-3.9,6.2-7.7c0-4.3,0.8-8.4,3.1-12.1c2.4-3.9,2.1-7.6-0.5-11.3c-1.7-2.3-3.1-4.9-1.9-7.9
		c0.8-1.9,1.8-3.9,3.1-5.4c2.1-2.6,4.1-5.2,3.9-8.7c-0.2-3.9,1.1-7.2,3.3-10.2c1.6-2.2,2.3-4.5,1.3-7.2c-0.1-0.4-0.1-0.8-0.1-1.5
		c0.4,0.2,0.6,0.3,0.7,0.4c2.7,3.6,4.1,7.6,1.8,11.9c-1.3,2.4-1.3,4.8-1.3,7.3c0,1.9-0.5,3.9-0.8,5.8c-0.1,0.8-0.7,1.5-0.6,2.3
		c0,0.7,0.6,1.3,1,1.9c0.6-0.4,1.4-0.6,1.6-1.1c0.5-1.5,0.9-3.1,0.8-4.6c0-2.6,1.1-4.4,3-5.8c1.4-1.1,2.8-2.1,3.5-3.9
		c0.3,0.5,0.5,0.9,0.4,1.3c-0.3,1.2-0.7,2.4-1.1,3.6c-0.3,0.9-0.8,1.7-1.1,2.6c-0.3,0.9-0.1,1.8,0.8,2.3c1,0.6,1.8,0.2,2.3-0.7
		c0.5-0.8,0.9-1.7,1-2.6c0.2-2.9,1.6-5.3,3.6-7.2c0.3-0.3,0.9-0.4,1.2-0.5c-0.3,1.7-1,3.4-0.7,4.9c0.5,3.1-0.1,5.8-1.9,8.3
		c-0.5,0.8-1.1,1.6-1.2,2.5c-0.1,0.7,0.2,2,0.7,2.2c0.6,0.3,1.6-0.2,2.3-0.5c0.4-0.2,0.5-0.8,0.9-1.2c1.1-1.2,2.1-2.3,3.2-3.4
		c0.6-0.6,1.4-1.1,1.9-1.8c0.8-1.1,1.4-2.2,1.2-3.3c-1.1-0.3-2.3-0.3-2.6-0.8c-0.4-0.7-0.3-1.9,0-2.6c0.6-1.2,1.6-2.1,2.4-3.1
		c0.8-1,1.8-1.9,2.1-3.1c1-3.5,1.7-7.1,2.5-10.5c-1.3,0.9-2.1,2.2-2.6,3.8c-0.3,1-0.7,2-1.2,2.9c-0.8,1.4-2.6,2.1-3.8,1.6
		c-1.1-0.4-1.7-2-1.4-3.6c0.1-0.4,0.2-0.8,0.3-1.2c0.3-1.1,0.7-2.2,1-3.3c-0.8,0.5-1.4,1.2-2,1.8c-0.9,0.8-1.8,1.9-3.2,1.2
		c-1-0.5-1.3-1.9-0.8-3.5c0.1-0.2,0.2-0.5,0.3-0.7c0.3-1.4,0.5-2.8,0.8-4.2c-0.1,0-0.3-0.1-0.4-0.1c-0.4,0.6-0.8,1.3-1.3,1.9
		c-0.9,1.2-2.6,1.5-3.6,0.8c-0.9-0.6-1-2.3-0.2-3.5c0.7-1.1,1.5-2.1,1.9-3.3c0.5-1.3,0.8-2.7,1.2-4.1c-0.2,0-0.3-0.1-0.5-0.1
		c-0.4,0.5-0.8,0.9-1.3,1.4c-1.9,2-3.6,2.4-5.9,1.3c-1.9-0.9-3.2-3-2.8-5.2c0.3-2.2,1-4.3,1.6-6.5c0.1-0.3,0.5-0.6,0.9-1.1
		c0.2,0.9,0.2,1.6,0.6,2.1c0.4,0.6,1,1.2,1.5,1.3c0.5,0.1,1.4-0.5,1.5-1c0.4-1.1,0.8-2.3,0.6-3.4c-0.4-1.7-1.1-3.4-1.9-5
		c-2.1-4.2-2.3-8.4,0.1-12.5c1.3-2.3,2-4.7,2.2-7.3c4.9,0,9.7,0,14.6,0c-1.3,1.8-1.7,3.8-2.1,5.9c-0.2,1.2-0.6,2.4-1.3,3.4
		c-1.2,1.8-2.8,1.7-4.1,0c-0.3-0.4-0.7-0.8-1.1-1.2c-1.2,2.6-2.6,5-2.1,7.8c0.1,0.8,0.6,1.8,1.3,2.1c3.4,1.7,3.9,2.4,3.7,6.2
		c0,0.4,0.2,0.9,0.3,1.3c0.5-0.1,1.2-0.1,1.5-0.4c0.8-1,1.9-2.1,2.2-3.3c0.9-3.5,2.6-6.4,5.1-9.1c1.1-1.2,1.7-2.9,2.5-4.2
		c-1.5,0.2-2.7,0.7-3.8,0.4c-2.3-0.6-2.8-3.1-1.4-5.5c0.7-1.2,1.4-2.4,2-3.5c6.1,0,12.1,0,18.2,0c-0.3,0.3-0.5,0.7-0.8,1
		c-1.8,1.5-3.8,2.9-5.5,4.6c-2.8,2.8-4.2,6.2-3.3,10.3c0.9,4.2,1.6,8.5,0.1,12.7c-0.1,0.4-0.1,0.9,0,1.3c0.2,1.7,1.4,2.4,2.7,1.4
		c1.3-1.1,2.4-2.6,3.4-3.9c1.1-1.4,2-2.9,3-4.3c1-1.4,2.1-2.8,3.2-4.2c-0.5-0.2-0.6-0.3-0.8-0.4c-2.4-1.1-2.7-2.8-0.9-4.8
		c0.2-0.3,0.5-0.5,0.7-0.7c0.9-1.3,1.8-2.6,2.8-4c-1.2,0.6-2.1,1.5-3.1,2.2c-1.2,0.9-2.9,0.8-3.9-0.1c-1.1-0.9-1.4-2.4-0.7-3.8
		c0.3-0.7,0.9-1.3,1.3-1.9c1.2-1.8,2.3-3.5,3.5-5.3c7.7,0,15.3,0,23,0c0,0.9,0,1.8,0,2.7c-0.8,0.8-1.6,1.7-2.4,2.3
		c-3.3,2.6-6.7,5-10,7.7c-1,0.8-1.6,2.1-2.2,3.3c-0.5,0.8-0.6,2,0.4,2.3c0.7,0.3,1.8,0,2.5-0.4c0.8-0.5,1.2-1.4,1.9-2.1
		c0.8-0.9,1.6-1.7,2.4-2.5c0.1,0.1,0.3,0.2,0.4,0.3c-0.3,1-0.8,2-0.9,3c-0.6,6.1-4,10.3-9.1,13.3c-4.8,2.9-9.6,5.9-12.8,10.6
		c-1.1,1.6-1.9,3.3-2.7,5.1c-0.2,0.4,0.1,0.9,0.2,1.4c0.5-0.1,1,0,1.3-0.3c0.8-0.7,1.7-1.4,2.4-2.2c1.1-1.4,2-2.8,3-4.2
		c2-2.7,4.9-3.5,8-4.1c-1.1,1.3-2.6,2.2-3.5,3.6c-1.6,2.5-3,5.2-4,8c-1.1,2.9-2.2,5.8-4.5,8.1c-1.7,1.7-3.6,3.3-5.3,5
		c-3.6,3.4-6.2,7.3-6.8,12.4c-0.6,4.8-2.8,8.8-6.5,11.8c-2.3,2-4.8,3.7-7.3,5.4c-3.1,2.2-6.1,4.5-8.3,7.6c-1.5,2.1-2.8,4.3-2.9,7
		c-0.1,1.1,0.6,1.9,1.5,2.1c0.7,0.1,1.7-0.3,2.2-0.8c0.8-1,1.4-2.1,2-3.3c2-4.6,4.3-8.8,8.8-11.5c1.4-0.9,2.7-2.1,5-2.2
		c-0.6,0.7-0.9,1.2-1.4,1.5c-3.8,3.4-6.5,7.5-7.6,12.6c-0.5,2.2-1,4.5-2,6.5c-3.8,7-9.1,12.4-17,14.9c-4.3,1.3-8.5,3-12,6
		c-2.4,2-4.7,4.2-4.5,7.8c0,0.5,0.2,1,0.3,1.5c2.2-1.1,3.7-2.4,4.7-4.4c2-3.9,4.9-6.3,9.4-6.8c3.8-0.4,7.2-2,10.1-4.6
		c0.6-0.5,1.2-1.1,1.9-1.6c-0.3,1.4-0.6,2.7-1.2,3.8c-2.1,3.8-5.1,6.7-9.1,8.4c-4.4,1.8-7.1,5.1-8.9,9.5c-0.9,2.2-2.2,4.2-3.6,6.1
		c-2.5,3.2-6.1,4.6-9.9,5.6c-2.8,0.8-5.3,1.9-7.2,4.2c-0.9,1-0.8,2-0.1,3c0.7,1,1.8,0.5,2.4,0.1c1.9-1.2,3.7-2.6,5.4-4.1
		c1.3-1.2,3.2-2.4,4-2.2c-1.3,1.8-2.6,3.7-4.1,5.6c-0.9,1.2-1.9,2.3-3,3.3c-2.5,2.3-5.6,3.1-8.8,3.6c-3.6,0.6-6.5,2-8.8,4.9
		c-0.8,1-1.8,1.9-2.9,2.5c-2.5,1.4-5.2,1-7.9,0.2c-1.7-0.5-3.5-0.9-5.3-0.8c-2.2,0.1-4.1,1.5-5.5,3.3c-1.7,2.3-4,3.1-6.8,3.4
		c-1.3,0.1-2.6,0.8-4,1.3c0.8,2.2,1.8,2.8,3.7,2.4c3.7-0.9,6.9-0.4,9.6,2.6c1.8,2,3.2,2,5.5,0.3c1-0.7,1.8-1.8,2.7-2.7
		c0.6-0.7,1.1-1.7,1.8-2.3c1.8-1.7,4-2.1,6.4-2.1c2.6,0,4.9-0.9,6.6-3.1c0.4-0.5,1-0.8,1.8-1.4c-0.6,1.5-0.9,2.6-1.5,3.7
		c-0.5,1-1.1,2.1-1.9,3c-1.5,1.9-3.6,2.9-5.8,3.8c-0.7,0.3-1.2,1.1-1.8,1.7c0.7,0.5,1.3,1,2,1.5c0.1,0.1,0.4,0.1,0.6,0.1
		c3.5,0.2,6.3-1.2,8.2-4.1c1.5-2.4,3.4-4.1,6.2-4.2c1.8-0.1,3.7,0.2,5.6,0.4c3.2,0.5,5.6-1.4,6.1-4.5c0.2-1.3,0.9-2.7,1.7-3.8
		c1.7-2.3,4.3-2.8,6.9-3.1c2.7-0.3,5.4-0.5,7.8-2.1c0.8-0.6,1.6-1.2,2.5-1.8c0.1,0.1,0.3,0.1,0.4,0.2c-0.2,0.9-0.2,1.9-0.6,2.7
		c-1.2,2.7-3.6,3.8-6.2,4.7c-1.2,0.4-2.4,0.8-3.4,1.4c-0.6,0.3-1.4,1.1-1.3,1.6c0.1,0.7,0.8,1.7,1.4,1.8c0.8,0.1,2-0.3,2.5-0.9
		c1.8-2.2,4.1-2.7,6.8-2.6c1.9,0.1,3.7-0.2,5.2-1.4c0.5-0.4,1-0.9,1.8-1.6c0,0.7,0.1,1-0.1,1.2c-1.1,1.3-2.2,2.6-3.5,3.8
		c-1,0.9-2.4,1.3-3.5,2.2c-0.5,0.4-0.7,1.4-1,2.1c0.8,0.1,1.6,0.4,2.3,0.4c0.4,0,0.9-0.5,1.3-0.6c0.4-0.1,0.8,0,1.4,0
		c-1.2,1.8-3.1,3.1-5.3,4c-1,0.4-2,0.9-2.8,1.5c-1.3,1.1-0.9,2.9,0.7,3.5c1.6,0.6,3.2,0.2,4.4-0.9c1.1-1.1,2.1-2.4,2.8-3.7
		c1.7-3.2,4.1-5.2,7.7-6c2.4-0.5,4.4-1.6,5.7-3.9c0.3-0.5,0.6-1.1,1-1.6c0.2,0.2,0.4,0.3,0.6,0.5c-0.3,0.9-0.5,1.8-0.8,2.6
		c-0.7,1.9-2.4,2.8-3.9,4c-0.8,0.6-1.2,1.5-0.6,2.3c0.7,0.9,1.7,0.8,2.5,0.2c0.8-0.6,1.4-1.5,2.1-2.3c2.2-2.9,4.9-5.2,8.4-5.9
		c2.6-0.6,4.8-1.5,6.8-3.1c1.5-1.3,2.9-2.6,4.4-3.9c0.2-0.2,0.5-0.4,0.8-0.7c-2.8-0.2-3.7,0.1-6.6,1.9c-1.6,1-3.2,1.7-5.2,0.8
		c-1.7-0.8-2-2.3-0.6-3.6c0.4-0.4,0.9-0.7,1.4-1.2c-2.7-0.5-4.1,1.2-5.8,2.5c-1.3,1.1-2.8,1.9-4.6,1.3c-1.5-0.5-1.9-2-0.8-3
		c0.9-0.9,2.1-1.5,3-2.4c1.1-1,2-2.2,2.9-3.3c-0.1-0.1-0.2-0.3-0.4-0.4c-0.6,0.2-1.3,0.5-1.9,0.6c-0.7,0.1-1.5-0.1-2.2-0.3
		c-1.5-0.5-2.1-1.9-1-3.1c1-1.1,2.3-1.9,3.4-2.8c1-0.8,1.9-1.5,1.9-3c-0.4,0.1-0.6,0.1-0.8,0.2c-2.1,0.6-3.6,0.2-4.2-1.1
		c-0.9-1.9-0.4-3.4,1.5-4.7c0.4-0.3,0.8-0.5,1.3-0.8c3-1.7,4.8-4.1,5.1-7.7c0.4-4.1,1.8-7.9,5.2-10.5c3.8-2.9,7.7-5.7,10.1-10.2
		c0.3,0.8,0.7,1.6,0.6,2.4c-0.1,2.1-1.2,3.8-2.6,5.4c-1.2,1.3-2.5,2.6-2.6,4.5c0,0.6,0.2,1.6,0.6,1.9c0.6,0.3,1.6,0.4,2.3,0.1
		c2.7-1.4,3.8-4.1,4.4-6.8c0.8-3.5,1-7.1,1.6-10.7c0.8-5,2.8-9.2,7.4-11.9c5-2.9,9-6.6,9.6-12.9c0.2-1.8,2.4-3.8,4.3-4.3
		c-2.2,2.8-2.1,5.9-2.3,9c-0.2,2.6-1.3,4.9-3,6.9c-2.2,2.6-4.6,4.9-6.7,7.5c-0.8,1-1.1,2.4-1.3,3.7c-0.1,1.2,1.3,2.2,2.4,2
		c1.9-0.4,3.5-1.3,4.6-2.8c3.1-3.8,5.1-8.2,6.3-12.9c1.7-6.6,4.8-12.2,10.2-16.4c0,24.7,0,49.3,0,74c-2.8,0.5-5.1,1.8-7.1,3.8
		c-3.2,3.2-6.9,5.5-11.5,6.4c-1.4,0.3-2.6,1.1-3.9,1.7c0.1,0.2,0.2,0.5,0.3,0.7c5.9,2.1,10.4-1.4,15.3-3.9c-0.2,1-0.4,2-1,2.6
		c-2.7,3.1-5.6,6-9.5,7.7c-3.8,1.6-7.8,2-11.9,2.1c-3.7,0.1-6.7,1.3-8.9,4.3c-3.3,4.5-7.9,6.7-13.2,7.8c-1.9,0.4-3.7,0.9-5.5,1.7
		c-1.4,0.6-1.5,1.8-0.1,2.4c1.1,0.5,2.5,0.7,3.7,0.4c2.1-0.5,4-1.5,6-2.2c-0.6,1.1-1.4,2.1-2.2,3c-3.6,4.1-8.2,5.8-13.4,5.9
		c-1.7,0-3.4-0.2-5-0.6c-3.3-0.8-6.2,0.2-9,1.8c-3,1.7-6.2,2.2-9.3,0.6c-2-1-3.8-2.3-5.5-3.7c-2.9-2.4-6-4-9.7-4.4
		c-2.6-0.3-5.2-0.1-7.1,2.1c-1.7,2-1.1,4.3,1.4,4.8c1.4,0.3,3,0.3,4.4,0.2c3.4-0.2,6.7,0.2,9.3,2.6c3.1,2.8,6.7,3.1,10.6,2.8
		c0.6,0,1.2,0,2.1,0c-0.4,0.5-0.5,0.7-0.6,0.8c-4.5,2.3-9,3.2-13.8,1.1c-3.2-1.4-6.4-1.6-9.7-0.6c-2.1,0.6-4.2,0.8-6.2-0.2
		c-1.9-1-3.9-2.1-5.6-3.5c-3.8-3.1-8-4.6-12.8-3.4c-4.5,1.2-7.4-0.9-9.5-4.1c-1.5-2.3-3.3-3.8-6.3-3.5c-2,0.2-4.1-0.1-5.9-1.5
		c-0.8-0.7-2-1-3.1-1.3c-0.9-0.2-1.4,0.1-1,1.2c0.7,2.3,2.5,3,4.5,3.4c2.8,0.6,5.1,1.8,6.6,4.3c0.4,0.7,0.8,1.5,1.3,2.2
		c2.6,3.3,5.7,5.7,9.9,7c3.9,1.2,6.4,4.2,7.6,7.9c-2.2-1-4.5-2.2-6.8-2.9c-1.4-0.4-3.1,0.1-4.6-0.3c-2.1-0.5-4.1-1.4-6.1-2.1
		c-0.4-0.1-1.2,0-1.5,0.3c-0.2,0.2-0.1,1.1,0.2,1.4c1.1,1,2.1,2.2,3.4,2.7c3.3,1.2,6.7,2.1,10,3.1c3,0.9,5.4,2.7,7,5.4
		c0.9,1.4,1.6,3,2.7,4.2c1.5,1.5,3.1,2.9,5,3.8c3,1.5,6.4,1.3,9.6,0.6c4.2-0.8,8.2-0.6,12.6,1c-0.9,0.2-1.3,0.4-1.8,0.4
		c-3.2,0.1-6.1,0.9-8.7,2.9c-1.8,1.4-4,2.2-6.3,2.4c-1.3,0.1-2.6-0.1-3.9,0.1c-0.7,0.1-1.3,0.7-1.8,1.3c-0.1,0.1,0.5,1.1,1,1.4
		c2.5,1.5,5.1,2.2,8,1.6c3.3-0.7,6-2.5,8.7-4.4c4.3-2.9,8.7-4.7,13.9-2.4c3.5,1.6,6.4,0.5,9.1-2c2.6-2.4,5.7-3.1,9.2-2.5
		c2.8,0.5,5.6,1.2,8.4,1.5c1.4,0.1,3-0.5,4.4-0.7c-0.2,0.7-0.5,1.5-1.1,1.7c-2.3,0.8-4.6,1.5-6.9,2.1c-1,0.3-2,0.7-2,1.8
		c0,1.2,1.1,1.3,1.9,1.4c3.2,0.4,6.2-0.3,8.8-2.4c1.3-1.1,2.6-2.2,4.1-3.2c3.1-2.1,6.4-2.9,10-1.5c1.8,0.7,3.6,0.7,5.5,0.1
		c2.7-0.9,4.6-2.8,6.7-4.4c3.3-2.5,7-3.5,11.2-3.1c3,0.4,6,1.5,9.1,0.8c0.2,0,0.4,0.1,1,0.2c-0.5,0.6-0.7,1.1-1.1,1.3
		c-2,0.8-3.9,1.5-5.9,2c-2.6,0.6-5.3,0.9-7.8,1.6c-1.7,0.4-2.7,1.8-2.5,2.9c0.2,1,1.6,1.9,3.2,2.1c0.2,0,0.4,0,0.6,0
		c2.6,0,5-0.9,7.3-2.1c3.6-1.8,7.4-3.3,11.6-3.3c0,18.3,0,36.6,0,54.9c-2.4-0.9-4.8-0.7-7.2-0.1c-6.9,1.7-13.1,0.1-18.5-4.4
		c-2.3-1.9-4.7-3.6-7.3-5.1c-3.2-1.9-6.6-3.4-10.6-2.1c-0.3,1.2,0.4,1.9,1.3,2.4c0.8,0.4,1.8,0.6,2.6,1c2.4,1,4.9,1.7,7,3.1
		c1.9,1.3,3.3,3.3,4.8,5c3.1,3.3,6.7,5.5,11.4,5.4c1.6,0,3.1,0,4.7,0c0,0.1,0.1,0.3,0.1,0.4c-0.4,0.3-0.8,0.6-1.2,0.7
		c-0.9,0.3-1.9,0.6-2.9,0.7c-2.3,0.1-4.7,0.5-6.9,0.1c-5.3-0.9-9.8-3.7-14-7c-3.6-2.8-7.6-3.9-12.1-2.8c-4.1,1-8.1,0.5-11.8-1.4
		c-4.5-2.2-7.9-5.8-11.5-9.1c-2.6-2.4-5.2-5-9.1-5.2c-0.6,0-1.2,0.3-1.9,0.4c0.2,0.6,0.2,1.5,0.7,1.8c1.3,1.1,2.8,2.1,4.3,2.9
		c3.7,2,6.9,4.6,9.2,8.2c0.9,1.4,2.2,2.5,3.3,3.7c0.4,0.4,0.8,0.7,1.5,1.3c-3-0.7-4.2-1.2-6.3-3.3c-3.7-3.7-8.1-6-13.1-7.5
		c-2.9-0.8-5.8-1.9-8.2-3.5c-2.6-1.8-4.8-4.4-6.9-6.9c-3.1-3.7-5.9-7.6-9-11.2c-0.7-0.9-2-1.3-3.2-1.7c-1.1-0.4-1.8,0.4-1.4,1.5
		c0.4,0.9,0.9,1.9,1.6,2.6c1.9,2,3.6,4,4.6,6.6c0.9,2.3,2,4.7,3.5,6.7c1.8,2.5,4.5,3.9,7.4,4.9c2.2,0.7,4,2,5.8,4.1
		c-2-0.7-3.5-1.3-5.1-1.7c-6.8-1.5-11.8-5.4-15.2-11.4c-2.1-3.6-5-6.3-8.9-7.9c-3.7-1.5-7.1-3.4-9.6-6.7c-1.7-2.2-3.3-4.4-3.6-7.3
		c-0.4-3.3-0.9-6.6-1.8-9.8c-0.5-1.8-1.6-3.5-2.6-5.2c-0.2-0.3-1.1-0.5-1.6-0.4c-0.4,0.1-0.8,0.8-0.8,1.3c0.2,2.3,0.1,4.6,0.8,6.7
		c1.3,4,3.3,7.7,4.2,11.8c0.6,2.4,2.5,4.5,3.7,6.6c-2-0.9-4-2.4-5.4-4.4c-1.4-1.9-2.3-4.2-3.8-6c-2-2.2-3.2-4.6-3.7-7.6
		c-0.7-4.2-2.3-8-5.8-10.8c-2.9-2.3-4.6-5.3-5-9c-0.3-2.6-0.2-5.3-0.6-7.8c-0.6-3.2-1.7-6.3-4-8.7c-0.4-0.4-1.4-0.8-1.5-0.7
		c-0.5,0.5-1,1.2-0.9,1.9c0.1,1.1,0.4,2.3,0.8,3.3c1.5,3,2.3,6.1,1.9,9.4c-0.5,3.7,0.3,7.1,2.6,10.1c2.6,3.4,4,7.3,4,11.7
		c0,4.6,1.6,8.5,6,11c3.1,1.8,5.6,4.4,6.8,8c1.1,3.4,2.9,6.4,5.8,8.6c0.3,0.3,0.6,0.6,1.1,1.1c-3.5,0-4.2-0.2-6.5-2.1
		c-1.8-1.4-3.4-3.1-5.1-4.5c-0.4-0.3-1.1-0.2-1.6-0.3c-0.1,0.6-0.4,1.3-0.2,1.7c0.8,1.5,1.7,3,2.7,4.4c2.2,2.8,4.8,5.2,8.2,6.4
		c1.8,0.6,3.7,1.2,5.5,1.7c4.7,1.3,8.2,3.9,10.6,8.2c2.4,4.3,5.5,7.9,10.8,9c1.2,0.2,2.2,1.4,3.3,2.1c-0.1,0.1-0.2,0.2-0.2,0.4
		c-1.7-0.2-3.5-0.4-5.2-0.5c-3.2-0.3-6.2-1.1-9-2.7c-1.8-1-3.4-2.2-5.2-3.2c-0.6-0.3-1.8-0.4-2.2-0.1c-0.4,0.3-0.5,1.5-0.3,2.2
		c0.2,0.9,0.6,1.8,1.2,2.5c3.8,5.1,9,7.1,15.3,6.7c2.4-0.1,4.9,0.2,7.4,0.6c3.2,0.5,5.6,2.7,8.1,4.6c3.3,2.4,6.6,4.5,10.8,4.8
		c4.4,0.2,8,2.1,11.1,5.2c1.4,1.4,3.3,2.4,5,3.6c0.4,0.3,0.9,0.4,1.4,0.7c-2.7,0.6-5.1,0.2-7.5-0.9c-1.5-0.7-3.1-1.3-4.7-1.7
		c-1.5-0.3-2.1,0.7-1.4,2.1c0.8,1.7,2.3,2.6,4.1,3.3c3.5,1.3,7,1.6,10.7,1.3c4.3-0.4,8.7-0.4,12.8,1.1c2.9,1.1,5.5,2.9,8.1,4.6
		c2.8,1.8,5.7,3.5,9.1,3.5c1.6,0,3.2-0.1,4.8-0.4c4.2-0.7,7.1,2.1,10.5,4c-1.4,1-2.7,0.5-3.8-0.1c-2.1-1-4.1-0.7-6.1,0.3
		c-1.3,0.7-2.4,1.6-3.8,2c-1.9,0.5-3.9,0.7-5.8,0.9c-1.8,0.2-2.7,1.6-1.7,3.1c0.3,0.5,0.9,1,1.4,1.2c2.6,0.9,5.1,0.9,7.7-0.2
		c2.4-1,4.8-2.4,7.4-2.9c3.9-0.9,7.9-0.3,11,2.5c2.5,2.2,4.7,4.6,7.2,6.9C307.9,316.2,309.5,318,312,318.4z M162.1,314.3
		c-0.1,0-0.2,0.1-0.4,0.1c-0.2-0.4-0.5-0.8-0.7-1.2c-0.9-1.4-1.5-3.1-2.7-4.2c-2.7-2.7-4.4-5.7-5.1-9.5c-0.2-1-0.8-1.9-2-2.1
		c-1.8-0.3-3.3-1.2-4.5-2.7c-0.3-0.4-1.1-0.5-1.6-0.8c-0.3,0.6-0.8,1.2-0.8,1.8c0,3.2,1.8,5.3,4.4,6.7c3.7,2,5.5,5,5.4,9.2
		c0,0.9,0,1.8,0.2,2.6c1,3.6,2.4,7.1,5,9.9c0.2,0.2,0.4,0.7,0.3,0.9c-0.2,0.3-0.7,0.6-1,0.5c-0.7-0.2-1.5-0.6-2.1-1
		c-0.9-0.7-1.7-1.7-2.7-2.3c-0.6-0.3-1.6-0.3-2.3,0c-0.9,0.4-1.1,1.4-0.6,2.3c0.7,1.2,1.3,2.5,2.1,3.5c1.7,1.9,3,3.9,3.5,6.4
		c0.3,1.5,0.6,3,1,4.4c0.7,2.6,2.8,4.1,4.6,6c-0.1-1.3-0.5-2.5-0.9-3.6c-0.5-1.7-1.3-3.3-1.5-5c-0.3-1.6,1.1-3.7,2.3-3.9
		c1.7-0.3,2.8,0.8,3.6,2c0.5,0.8,0.9,1.6,1.5,2.6c0.6-2,0-3.4-0.8-5c-0.8-1.5-1.4-3.1-1.9-4.7c-0.4-1.5,0.5-2.9,1.9-3.4
		c1.4-0.6,2.5-0.3,3.4,1.2c0.7,1.1,1.2,2.4,1.6,3.6c0.8,2.4,1.7,4.7,3.5,6.7c0-0.4,0.1-0.5,0-0.7c-0.5-2.3,0-3.6,1.7-4.3
		c1.2-0.5,2.7,0.2,3.9,1.8c0.5,0.7,1,1.5,1.5,2.2c0.1-0.4,0.1-0.8,0-1.1c-0.7-2.8-2.5-4.8-4.5-6.9c-1.1-1.2-2.2-2.5-3-4
		c-0.3-0.6-0.1-2,0.4-2.5c0.4-0.5,1.6-0.3,2.5-0.2c0.4,0.1,0.7,0.6,1.3,1.1c-0.4-2.1-1-3.8-2.7-4.8c-3.4-1.9-5-4.9-5.8-8.5
		c-0.4-1.8-1.6-2.6-2.9-2c-2.4,1-3.9,0.5-5.4-1.7c-0.4-0.7-0.7-1.4-1.2-2.1c-0.3-0.4-0.9-0.9-1.1-0.8c-0.4,0.2-0.9,0.7-0.9,1.2
		c0,0.9,0.1,1.9,0.5,2.7c0.5,1.2,1.3,2.3,2,3.5C162.6,310,162.3,312.2,162.1,314.3z M80.2,313.3c-0.2-0.7-0.3-1-0.4-1.3
		c-0.5-1.6-0.9-3.3-1.6-4.9c-1.1-2.4-0.9-4.7-0.1-7.1c0.6-1.8,1.2-3.6,1.5-5.4c0.2-1-0.1-2.2-0.6-3.1c-0.5-1.1-2-1-2.3,0.1
		c-0.3,0.9-0.3,1.9-0.4,2.9c-0.1,1.5-0.1,2.9-0.4,4.4c-0.4,1.6-1,3.2-1.6,4.8c-0.1,0.2-0.4,0.5-0.4,0.5c-0.3-0.1-0.6-0.3-0.7-0.6
		c-0.8-1.5-1.1-3.1-0.8-4.9c0.2-1.1,0.5-2.2,0.2-3.2c-0.2-0.9-1.1-1.7-1.6-2.6c-0.8,0.5-1.6,1-2.3,1.7c-0.2,0.2-0.3,0.7-0.2,1.1
		c0.2,1.6,0.2,3.2,0.8,4.6c1,2.7,1,5.2,0.2,8c-0.4,1.3-0.3,3,0.2,4.3c1.5,3.5,1.5,6.8-0.3,10.1c-1,1.8-1.1,3.7-0.6,5.8
		c0.5,2.1,1.2,4.3,0.6,6.6c-0.2,0.9,0,1.9,0,2.7c2.6-2.4,3.1-5.5,2.3-8.9c-0.1-0.3-0.1-0.7-0.1-1c0-1.6,1.5-3.3,2.8-3.4
		c1.4-0.1,2.5,1,2.8,2.9c0.1,0.5,0.3,1,0.4,1.6c1.3-1.7,1.6-3.5,1.3-5.3c-0.4-1.8,0-3.4,1-4.8c0.5-0.7,1.5-1.2,2.3-1.3
		c0.6,0,1.4,0.8,1.8,1.5c0.4,0.7,0.3,1.6,0.5,2.4c0.2,1.5,0.1,3.1,1.3,4.1c0.4-0.9,0.6-2,1.2-2.7c0.6-0.7,1.8-1.5,2.5-1.3
		c0.7,0.2,1.1,1.5,1.6,2.4c0.1,0.2,0,0.4,0,0.6c0.4,1.3,0.7,2.6,1.1,3.8c0.4-1.8,0.3-3.7,1-5.3c1.5-3.4,0.5-6.4-0.9-9.5
		c-0.8-1.7-1.1-3.8-1.2-5.7c-0.1-1.5,0.6-3,0.9-4.5c0.4-1.9,0.3-3.7-0.9-5.4c-0.7-0.9-1.4-1.6-2.6-1.1c-1.2,0.6-0.6,1.6-0.3,2.5
		c0.7,2.4,0.4,4.7-1,6.8c-0.3,0.5-1,0.7-1.5,1.1c-0.2-1.6-0.3-2.9-0.6-4.2c-0.1-0.3-0.9-0.7-1.3-0.6c-0.3,0-0.8,0.6-0.9,1
		c-0.2,1-0.1,2-0.1,2.9C82.5,308.9,82,311.1,80.2,313.3z M259,239.9c0-0.1,0.1-0.2,0.1-0.4c-1.7-0.6-3.4-1.1-5.1-1.7
		c-1.4-0.4-2.9-0.7-4.2-1.3c-1.2-0.5-1.9-1.7-1.7-3.1c0.2-1.3,1.2-1.7,2.3-2c0.5-0.1,0.9-0.2,1.7-0.4c-0.6-0.4-1-0.8-1.5-1
		c-0.7-0.3-1.5-0.5-2.2-0.9c-1.2-0.6-2.3-1.5-2.2-3c0.1-1.7,1.2-2.9,2.9-3.2c0.9-0.2,1.9-0.1,2.8-0.3c0.7-0.1,1.4-0.3,2.1-0.5
		c-0.6-0.5-1.2-0.7-1.8-0.9c-1.1-0.4-2.2-1.2-1.9-2.3c0.2-0.9,1.2-1.8,2.1-2.2c1.2-0.5,2.6-0.6,3.9-0.9c-1.5-0.4-2.9-0.8-4.4-1.3
		c-2.2-0.6-4.4-0.6-6.4,0.5c-3.7,2-7.3,1.5-10.9-0.5c-1.1-0.6-2.3-1.1-3.6-1.4c-1.2-0.3-2.6,0.7-2.7,1.9c-0.2,1.1,0.6,1.9,2,2.1
		c0.7,0.1,1.5,0,2.2,0c1.7,0,2.9,0.9,4.3,2.1c-1.2,0.3-2.2,0.4-3,0.7c-3.3,1.3-6.4,0.9-9.4-0.9c-0.8-0.5-1.8-0.7-2.8-0.8
		c-0.6,0-1.2,0.5-1.8,0.8c0.3,0.6,0.5,1.3,1,1.8c0.3,0.4,0.9,0.5,1.4,0.6c1,0.2,2,0.3,3.3,0.5c-0.4,0.7-0.7,1.3-1.1,1.5
		c-0.9,0.5-1.9,0.9-3,1.2c-1.1,0.3-1.4,0.9-0.7,1.7c0.4,0.4,0.9,0.9,1.4,1c1.6,0.1,3.4,0.4,4.9-0.1c2.8-0.8,5.4-1.2,7.8,0.8
		c1.6,1.3,3.6,1.6,5.6,1.4c0.6-0.1,1.2-0.2,1.8-0.3c0.1,0.1,0.2,0.2,0.3,0.4c-0.5,0.6-1.1,1.2-1.5,1.8c-0.4,0.7-1.1,1.5-1.1,2.2
		c0.1,1.2,1.2,1.9,2.3,1.9c1.9,0.1,3.3,1,4.6,2.3c1.6,1.7,3.5,2.6,5.8,2.5C255.1,240.4,257.1,240.1,259,239.9z M209.1-1
		c-0.1,0-0.1-0.1-0.2-0.1c-0.2,1.2-0.5,2.4-0.7,3.6c-0.3,1.6-0.3,3.3-0.9,4.8c-0.4,0.9-1.6,1.6-2.5,2c-0.3,0.1-1.1-1-1.7-1.5
		c-0.1-0.1-0.2-0.2-0.5-0.4c-0.2,0.6-0.4,1.1-0.4,1.6c0.1,1.4,0.3,2.9,0.4,4.3c0.3,2.2,0.2,4.3-1.7,5.8c-0.5,0.4-1.6,0.7-2.1,0.5
		c-0.6-0.3-1.3-1.2-1.4-2c-0.2-1,0-2.2,0.2-3.2c0.5-3.3-0.3-6.3-2.7-8.7c0.1,1.1,0.1,2.1,0.2,3c0.1,1.4,0.3,2.8,0.2,4.2
		c-0.1,1.2-0.8,2.2-2.2,2.2c-1.1,0.1-2.2-1.1-2.4-2.4c-0.1-0.6-0.2-1.2-0.3-2.1c-0.3,0.4-0.4,0.6-0.5,0.7c-1,3.4-0.9,6.7,0.8,9.8
		c1.7,3.2,2,6.4,0.4,9.8c-0.7,1.5-1,3.3-1.2,5c-0.1,0.6,0.6,1.5,1.1,1.8c1,0.4,1.5-0.4,1.8-1.3c0.2-0.9,0.4-1.7,0.6-2.8
		c1.5,1,2.7,2.3,2.6,4.2c-0.1,1.6-0.4,3.2-0.6,4.8c-0.1,0.9-0.5,1.8-0.4,2.6c0,0.6,0.6,1.1,0.9,1.7c0.5-0.4,1.4-0.6,1.5-1.1
		c0.3-1.2,0.6-2.6,0.4-3.8c-0.4-2.1,0.3-4,1-5.9c0.5-1.3,0.8-2.6,1-4c0.2-1,0-2,0-3.4c0.6,0.6,1,0.9,1.3,1.3
		c1.4,1.9,2.1,3.9,1.7,6.3c-0.2,1.3-0.6,2.5-0.7,3.8c0,0.6,0.5,1.2,0.7,1.9c0.6-0.4,1.3-0.6,1.6-1.1c1.3-2.1,0.8-4.4,0.4-6.6
		c-0.6-3.4-1.2-6.7,1.1-9.7c0.6-0.8,1.2-1.7,1.7-2.6c1-1.8,2.2-3.6,1.8-6c-0.5,0.3-0.8,0.5-1.2,0.7c-1.6,0.7-2.8,0-2.6-1.6
		c0.2-1.2,0.9-2.3,1.6-3.4c1.3-2,2.7-4.1,2.5-6.7C209.7,2.9,209.4,1,209.1-1z M300.8,367.7c0.1-0.1,0.2-0.2,0.3-0.2
		c-1-2.8-2.2-5.5-5.1-7.1c-0.9-0.5-1.7-1.4-2.2-2.3c-1-1.7-0.7-3.2,0.5-4.1c1.3-1,2.8-1,4.3,0.2c0.4,0.3,0.8,0.6,1.5,1.2
		c-0.2-0.5-0.2-0.8-0.4-0.9c-1.8-2.2-3.6-4.5-5.6-6.6c-2.1-2.2-4.7-3.1-7.7-2.4c-1.8,0.4-3.5,0.2-5.2-0.6c-1.5-0.7-2.9-1.4-4.5-1.9
		c-0.7-0.2-2-0.2-2.4,0.3c-0.4,0.5-0.5,1.8-0.1,2.4c1.1,1.5,2.5,2.8,3.8,4.2c0.9,0.9,1.9,1.8,2.5,2.8c0.7,1.1,1,2.5,1.5,3.7
		c0.7,1.7,1.6,3.1,3.2,4.2c0.1-0.6,0.2-1.1,0.3-1.5c0.5-1.8,2.4-2.4,3.8-1.3c0.4,0.3,0.7,0.8,1.2,1.2c1.1,0.9,2.2,1.8,3.3,2.6
		c1.3,1,2.6,1.9,3.8,3C298.9,365.4,299.8,366.6,300.8,367.7z M301.5,215.7c0-0.1,0-0.1-0.1-0.2c-1.8-0.6-3.6-1.2-5.5-1.7
		c-1.7-0.5-3.4-0.5-5.2,0.1c-1.7,0.6-3.5,1-5.2,0.9c-1.2-0.1-2.6-0.9-3.5-1.8c-1-1,0.1-2.2,0.7-3.2c0.1-0.2,0.2-0.4,0.4-0.7
		c-1.9-0.2-3.7-0.5-5.1,0.7c-2.4,1.9-5,2.5-8,2.5c-1,0-2.1,0.3-3,0.7c-0.5,0.2-1,1-0.9,1.5c0,0.5,0.6,1.1,1.1,1.4
		c0.7,0.3,1.6,0.5,2.5,0.5c1.9,0.1,3.2,1.1,4.3,2.6c1.8,2.7,4.3,3.7,7.5,3c3.2-0.7,6.2-0.6,9.4,0.3c1.6,0.4,3.3,0.4,5,0.6
		c-0.8-0.9-1.6-1.5-2.4-2c-1-0.7-1.5-1.7-1-3c0.5-1.3,1.5-1.7,2.8-1.7c0.9,0,1.9,0.1,2.8,0.1C299.2,216,300.3,215.8,301.5,215.7z
		 M-0.5,355c0.2-0.6,0.4-1.2,0.7-1.7c1.5-2.5,2.9-5.1,4.7-7.3c1.5-1.9,3.6-3.4,5.4-5c3.1-2.7,4.6-5.8,3-10c-0.5-1.4-0.5-3-0.4-4.5
		c0.1-2,0.6-4,0.8-6c0.1-1.5-1.1-2.6-2.4-2.3c-1.7,0.4-3.4,1.1-4.2,2.8c-0.7,1.4-1.5,2.8-1.8,4.4c-0.8,3.5-1.8,6.9-4,9.8
		c-0.3,0.4-0.4,0.9-0.7,1.5c0.5,0,0.9,0,1.3,0c1.7,0.1,2.6,1.2,3.4,2.6c0.6,1.2,0.1,2.1-0.6,3c-0.9,1.3-1.9,2.6-2.8,4
		C0.4,348.8-0.8,351.6-0.5,355z M302,332c-1.2-1-2.4-2-3.5-3c-1-1-2-2-2.6-3.2c-0.4-0.7-0.2-2,0.3-2.7c0.5-0.9,1.5-1.6,2.8-1.1
		c0.5,0.2,1,0.3,1.5,0.4c0.1-0.1,0.1-0.2,0.2-0.3c-1.6-1.7-3.1-3.5-4.9-4.9c-1.9-1.6-4.2-2.8-6.8-2.9c-1,0-1.7,0.2-1.9,1.3
		c-0.3,1.4-1.2,2.5-2.6,2.8c-1.1,0.2-2.4,0.1-3.5,0c-1.5-0.2-3-0.8-4.5-1c-1.8-0.2-2.4,0.5-1.7,2.1c0.6,1.4,1.7,2.7,2.9,3.6
		c1.1,0.9,2.8,1.2,4,2.2c1.9,1.5,3.5,3.4,5.3,5.1c0.6,0.6,1.2,1.1,2,1.8c-0.5-1.5-1-2.5-1.3-3.6c-0.3-1.3,0.5-2.6,1.6-3.3
		c1.3-0.9,2.1,0,3,0.7c0.3,0.3,0.5,0.6,0.8,0.9C295.2,329.8,298.4,331.2,302,332z M-0.4,319.1c1.3-4.1,3.4-7.6,5.8-11.1
		c0.8-1.2,1.3-2.8,1.7-4.2c0.4-1.5,0.2-3.1,0.6-4.5c0.7-2.2,1.7-4.3,2.6-6.4c0.9-2.1,0.7-3.5-0.6-4.6c-1.2-1.1-2.3-2.3-3.4-3.5
		c-0.7-0.8-1.4-1.1-2.5-0.8c-2.7,0.8-4.4,2.9-4.7,6.3c-0.3,2.6-0.5,5.1-0.8,7.8c0,0,0.3,0,0.7,0c2.5,0.1,4.1,1.8,3.7,4.3
		c-0.1,0.7-0.3,1.4-0.6,2.1C0.2,309.2-0.6,314-0.4,319.1z M-5.1-32.5c0.9,4.4,1.6,8.6,2.6,12.7c0.5,1.9,1.5,3.8,2.7,5.4
		c1.3,1.8,3.2,2.8,5.7,1.8c2.5-0.9,5.1-0.5,7.4,1c0.9,0.6,2.1,0.9,2.7-0.3c0.7-1.4,1-3-0.1-4.2c-1.2-1.3-2.5-2.7-4-3.6
		c-1.9-1.1-3.2-2.5-4.1-4.5c-0.8-1.9-1.6-3.9-3.9-5.3c0.2,0.7,0.4,1.1,0.4,1.5c0.2,1.2,0.4,2.3,0.5,3.5c0,1.3-0.8,2.2-2,2.4
		c-1.1,0.2-1.9-0.4-2.4-1.5c-0.8-1.7-1.6-3.4-2.4-5.1C-2.8-30.2-3.5-31.8-5.1-32.5z M135.4,4c1.6,0.4,2.3,1.5,2.7,2.7
		c0.6,1.7,0.9,3.5,1.5,5.3c0.2,0.6,0.7,1,1.1,1.5c0.5-0.6,1.4-1.1,1.5-1.8c0.2-1.1-0.1-2.3-0.2-3.5c-0.2-1.6-0.7-3.2-0.4-4.7
		c0.5-2.6,0-4.8-1.6-6.7c-2.1-2.5-4.2-4.9-4.3-8.4c0-0.1-0.1-0.1-0.2-0.2c-0.8,1.5-0.9,3-0.5,4.7c0.2,0.8,0.4,1.7,0.4,2.5
		c-0.1,2-1.5,2.8-3.2,1.7c-0.7-0.5-1.3-1.2-2-1.9c-0.7,1.3-0.6,3.4-2.6,3.5c-1.9,0.1-2.6-1.5-3.5-2.9c-1.5,1.6-1.5,1.6-4.4-0.4
		c1.1,3.2,3,5.5,4.9,7.9c1,1.3,2.5,0.7,3-0.9c0.1-0.2,0.2-0.4,0.4-0.9c0.8,0.5,1.6,0.9,2,1.5c1,1.4,1.7,2.9,2.6,4.3
		c0.4,0.6,1.1,1.1,1.6,1.7c0.4-0.8,0.9-1.5,1.2-2.4c0.1-0.4-0.1-0.9-0.1-1.3C135.4,5,135.4,4.6,135.4,4z M302.7,84.8
		c-2.7,1.4-5.5,3-8.5,4.3c-1.8,0.9-3.9,1.3-5.7,2.1c-1.9,0.9-2.6,2.7-2,4.7c1,2.9-0.2,5-2.1,6.9c-0.9,0.9-2,1.4-2.9,2.3
		c-0.5,0.6-1.1,1.7-0.8,2.2c0.3,0.6,1.4,1.1,2.2,1.1c2,0.1,3.7-1,5-2.5c2.1-2.3,4.6-3.9,7.6-4.6c0.8-0.2,1.6-0.6,2.4-0.8
		c-0.5-0.5-1-0.6-1.5-0.7c-2-0.5-3-2.1-2.8-4.2c0.1-2.3,1.6-3.2,3.3-4.2C300,90.1,302.1,87.8,302.7,84.8z M10.3,73.4
		c-0.1,0.2-0.1,0.5-0.2,0.7c0.6,0.3,1.2,0.6,1.8,0.9c1.2,0.6,1.7,1.8,1.3,3.1c-0.4,1.3-1.4,1.8-2.7,1.6c-0.7-0.1-1.5-0.3-2.1-0.6
		c-1.7-0.7-3.3-1.6-5-2.2c-1.1-0.4-2.3-0.4-3.5-0.6c0.9,1.2,1.9,1.9,2.8,2.7c1,1,1.9,2.2,2.9,3.2c1.3,1.4,4.4,1.8,6.1,1.5
		c2.3-0.5,4.8-0.8,7.1-0.6c3,0.3,5.8,0.4,8.6-0.9c2.2-1.1,2.5-3.2,0.5-4.7c-1.5-1.1-3.3-1.4-5.1-1.1c-2.2,0.4-4.2-0.1-6.1-1.1
		c-0.9-0.5-1.7-1-2.7-1.3C12.8,73.6,11.5,73.6,10.3,73.4z M-1.8,170.8c0.3,0,0.6,0,0.8-0.1c1-0.7,2.2-1.2,2.8-2.1
		c1.8-2.9,4.3-4.2,7.5-4.7c2.9-0.5,4.1-1.8,4.1-4.7c0-1.9,1-3.3,2-4.7c0.9-1.3,2-2.4,2.8-3.6c1-1.6,0.9-3.6,0-4.2
		c-1-0.7-2.6-0.3-3.9,1.2c-2.1,2.5-4.7,3.9-7.8,4.5c-1.1,0.2-2.1,0.7-3.1,1.1c0,0.2,0,0.3,0.1,0.5c0.7,0.2,1.5,0.5,2.2,0.7
		c2.6,0.9,3.2,3.6,1.1,5.4c-0.9,0.7-1.8,1.4-2.8,1.9c-1.8,0.9-3,2.2-3.8,4C-0.5,167.4-1.1,169-1.8,170.8z M298.4,244.5
		c-0.6-0.5-1-0.8-1.3-1.2c-1.2-1.2-1.6-3-1-4.2c0.7-1.4,2-2,3.9-1.8c1,0.1,1.9,0.2,2.8,0.3c-2.1-2.7-4.8-3.5-8.1-2
		c-0.3,0.1-0.6,0.2-0.9,0.2c-1.5,0.2-3,0.1-4-1.3c-1-1.3-0.7-2.5,0.1-3.7c0,0,0-0.2,0,0c-1.7,0-3.2,0-4.8,0c-1.6,0-3.1,0.2-4.5,1.2
		c0.2,0.3,0.4,0.6,0.6,0.7c2.3,2,2.5,3.1,0.9,5.6c-0.8,1.2-0.2,1.7,0.7,2.2c0.5,0.3,1,0.6,1.5,0.5c3.3-0.1,6,1.5,8.7,3
		C294.6,245.3,296.4,245.3,298.4,244.5z M-0.6,195.6c0,0.1,0.1,0.3,0.1,0.4c1.1-0.8,2.6-1.4,3.1-2.4c1.6-3.7,4.8-5.1,8.3-5.9
		c3-0.6,3.7-1.9,2.5-4.6c-0.8-1.8-0.9-3.6,0-5.3c0.4-0.9,1.1-1.7,1.6-2.5c0.9-1.3,0.5-2.8-1.1-3.1c-0.9-0.2-2.1,0-2.9,0.5
		c-1.2,0.8-2.1,2-3.2,3c-1.6,1.5-3,3.3-5.5,3.4c1.2,0.7,2.5,1,3.5,1.6c1.8,1,1.9,3.2,0.3,4.4c-0.7,0.6-1.6,1-2.5,1.3
		c-2,0.7-3,2.1-3.4,4.1C0,192.3-0.3,194-0.6,195.6z M286.1,336.9c0-0.1,0.1-0.2,0.1-0.3c-1.8-1.2-3.5-2.7-5.5-3.6
		c-4-1.9-7-4.6-9.4-8.3c-0.9-1.4-2.1-2.7-3.5-3.8c-1-0.7-2.4-0.9-3.4,0.1c-1,1.1,0,2.1,0.5,3.1c0.1,0.2,0.2,0.4,0.3,0.5
		c1.4,1.1,1.3,2.6,0.7,4c-0.6,1.5-0.1,2.6,0.9,3.6c1.6,1.6,3.5,2.3,5.7,2.6c2.4,0.3,4.7,0.5,7.1,0.9
		C281.9,336,284,336.5,286.1,336.9z M301.7,117.9c-0.7,0.3-1.3,0.5-1.8,0.8c-1.3,0.8-2.5,1.6-3.8,2.3c-1.6,0.9-3.9-0.5-3.8-2.3
		c0.1-1.6,0.7-3.1,1.1-4.7c-1,0.6-2.1,1.2-3.1,2c-1.4,1.1-2.2,2.4-2.3,4.4c-0.2,2.7-1.2,5.2-3.7,6.8c-1,0.7-1.9,1.5-2.8,2.4
		c-1,1.1-0.7,2.2,0.8,2.5c3.1,0.7,5.4-0.8,7.2-3c1.5-1.8,3.1-3.4,5.3-4C298.5,124,300.2,121.3,301.7,117.9z M28.9,67
		c0-1.4,1.3-2,2.4-2.8c1.2-0.8,1.2-1.3,0.2-2.3c-1.4-1.3-3.9-1.2-5.7,0.4c-1.4,1.2-2.7,2.5-4.7,2.7c-1.9,0.2-3.8,0.3-5.7,0.5
		c-1.6,0.2-3,0.8-3.8,1.9c4,0.8,8.1,1.5,12.1,2.4c3.4,0.7,6.5,2.9,10.1,2.8c0.9,0,2.2-0.5,2.7-1.3c0.7-1-0.5-1.8-1.3-2.1
		C33.3,68.4,31.2,67.8,28.9,67z M16.1-23c-0.1,0.1-0.2,0.2-0.3,0.2c0.2,0.4,0.4,0.8,0.7,1.1c1.7,1.8,2.7,3.9,3.2,6.3
		c0.4,2,0.6,4,0.9,6c0.3,2,1.1,3.5,3,4.5c0.9,0.4,1.6,0.3,2.1-0.4c1.7-2.4,3.9-2.3,6.3-1.3c0.6,0.3,1.4,0.2,2.1,0.2
		c0.1-0.8,0.4-1.7,0.1-2.4c-1-2.9-3.2-4.5-6.2-5.1c-2.9-0.5-5.1-2-6.9-4.3C19.7-20,18.2-21.9,16.1-23z M286.3,112.5
		c-0.7,0.1-1.7,0.3-2.8,0.4c-2.6,0.2-5.2,0.3-7.7,0.7c-1.1,0.2-2.1,0.9-3.1,1.6c-0.4,0.3-0.5,1.2-0.3,1.7c0.1,0.4,1,0.7,1.5,0.7
		c0.7,0,1.5-0.3,2.7-0.6c-0.1,0.8,0,1.7-0.4,2.2c-0.8,1.1-1.7,2.1-2.7,2.9c-1.4,1.1-3.1,1.9-4.5,3.1c-0.6,0.5-0.7,1.5-1,2.3
		c0.8,0.3,1.5,0.5,2.3,0.8c0.1,0,0.2-0.1,0.3-0.1c3.9-0.6,6.7-2.8,8.9-5.8C281.9,119.1,284.1,115.7,286.3,112.5z M262,224.2
		c1,0.8,1.8,1.7,2.8,2.4c1.3,0.9,1.4,2.1,0,2.8c-0.8,0.4-1.7,0.7-2.6,0.9c-1.1,0.3-2.2,0.4-3.4,0.7c-0.1,0.2-0.1,0.4-0.2,0.5
		c0.7,0.5,1.3,1.1,2,1.5c3,1.3,6.1,0.9,8.9-0.5c3.1-1.5,6.1-3.3,9-5c-2.4-0.9-4.9-1.7-7.4-2.6c-1.6-0.6-3.1-1.3-4.7-1.7
		C265.1,223,263.5,222.4,262,224.2z M10.2,168.6c0.1,0.1,0.1,0.2,0.2,0.3c1.9-0.4,3.8-0.9,5.7-1.1c2-0.2,4,0,5.9-0.5
		c1.6-0.4,3.2-1.3,4.6-2.1c0.4-0.2,0.6-1.3,0.5-1.8c-0.2-0.5-1-1-1.6-1c-1-0.1-2.1,0.2-3.3,0.3c0-1.4,0.7-2.6,1.8-3.5
		c1-0.8,2.1-1.5,3-2.4c0.5-0.5,0.5-1.4,0.7-2.1c-0.5-0.1-1.1-0.4-1.6-0.4c-3.2,0.2-5.3,2.1-6.8,4.6c-2,3.4-4.4,6.3-7.7,8.4
		C11.1,167.7,10.6,168.2,10.2,168.6z M271.7-11.2c-2.4,3-5,6.3-7.5,9.5c-0.6,0.8-1,1.7-1.3,2.6c-0.1,0.4,0,1,0.3,1.3
		c0.3,0.2,0.9,0.2,1.3,0c0.7-0.4,1.3-0.9,2-1.4c2.2,2.3,1.1,4.7,0.3,7.1c-0.2,0.6-0.1,1.2-0.1,1.8c0.6-0.2,1.3-0.2,1.8-0.6
		c2.1-1.7,3.1-4.1,3.2-6.7C271.7-2.3,271.7-6.9,271.7-11.2z M9.2,312.6c0.1,0,0.2,0.1,0.3,0.1c0.9-0.9,1.8-1.8,2.8-2.6
		c1.6-1.4,3.4-2.7,5-4.2c1.5-1.4,1.6-2.8,0.5-4.5c-0.4-0.7-0.7-1.5-0.7-2.3c0.1-1.5,0.4-3,0.6-4.5c0-0.4-0.1-0.7-0.1-1.1
		c-0.4,0.1-0.8,0-1.1,0.2c-1.9,0.8-3.4,2.2-3.9,4.1C11.3,302.7,10.3,307.7,9.2,312.6z M3.7,62.9C5.2,63.9,6.1,64,8,62.9
		c2.2-1.2,4.4-1.9,6.9-2c0.4,0,0.8,0,1.2-0.2c0.5-0.2,1.2-0.5,1.2-0.8c0.1-0.6-0.2-1.4-0.6-1.7c-1.2-0.6-2.5-1.1-3.8-1.5
		c-2-0.6-4-1-6-1.4c-1-0.2-2-0.6-3-0.5c-2.3,0.1-4.6,0.4-7.2,0.6c0.6,0.4,1.1,0.9,1.6,1.1C0,56.9,1.7,57,3.3,57.4
		c1.1,0.3,2.6,0.5,2.8,1.8c0.1,0.8-0.3,1.9-0.8,2.7C5.1,62.3,4.3,62.5,3.7,62.9z M84.2,350.4c0.1-0.6,0.1-1.2,0.3-1.7
		c0.9-2.7,1.8-5.4,2.6-8.1c0.4-1.3,0.5-2.7-0.6-4.3c-0.8,1-1.6,1.8-2.8,3.2c-0.4-0.7-0.8-1.5-1.3-2c-0.5-0.5-1.4-1.1-1.8-0.9
		c-0.6,0.3-0.9,1.2-1.2,1.9c-0.1,0.3,0,0.8,0,1.2C80,343.7,82.3,346.9,84.2,350.4z M175.6,345.3c-0.8-0.4-1.6-0.8-2.4-1.2
		c-0.8-0.3-1.4-0.4-1.7,0.7c-0.4,1.6,0.1,2.9,0.9,4.2c1.9,2.9,4.9,4.5,7.7,6.4c-0.3-2.9-0.6-5.7-0.8-8.4c-0.1-1.8-0.7-3.3-2.4-4.6
		C176.5,343.3,176.1,344.1,175.6,345.3z M199.9-3.1c0.5,0.8,1,1.5,1.4,2.2c0.8,1.2,1.3,1.2,1.8-0.2c0.7-2.1,0.7-4.2-0.1-6.2
		c-0.8-2.1-1.9-4.1-3-6.1c-0.4-0.7-0.9-1.3-1.3-1.8c-0.6,3.6-1.3,7.1-1.8,10.7c-0.2,1.4-0.7,3,0.8,4.6C198.4-1,199.1-1.9,199.9-3.1z
		 M121.2-10.5c0.3-0.7,0.6-1.2,0.8-1.8c0.8-1.8,2.7-2,3.8-0.4c0.5,0.7,0.8,1.6,1.2,2.4c0.3,0.4,0.7,0.8,1,1.2
		c0.2-0.1,0.4-0.2,0.6-0.3c-0.1-1.1,0.1-2.4-0.4-3.3c-1.3-2.5-2.9-4.9-4.4-7.3c-0.8-1.2-1.7-2.3-2.6-3.5c0.2,2.9-0.3,5.5-1.1,8.1
		C119.6-13.8,119.5-12,121.2-10.5z"/>
</g>
</svg>
